<?xml version="1.0" encoding="UTF-8" standalone="no"?>
<svg id="svg2" xmlns="http://www.w3.org/2000/svg" version="1.1" width="25" height="25" viewBox="0 0 25 25">
<rect shape-rendering="crispEdges" width="1" height="1" x="17" y="0" fill="#000001" fill-opacity="1.00" />
<rect shape-rendering="crispEdges" width="1" height="1" x="18" y="0" fill="#000001" fill-opacity="1.00" />
<rect shape-rendering="crispEdges" width="1" height="1" x="19" y="0" fill="#000001" fill-opacity="1.00" />
<rect shape-rendering="crispEdges" width="1" height="1" x="20" y="0" fill="#000001" fill-opacity="1.00" />
<rect shape-rendering="crispEdges" width="1" height="1" x="21" y="0" fill="#000001" fill-opacity="1.00" />
<rect shape-rendering="crispEdges" width="1" height="1" x="16" y="1" fill="#000001" fill-opacity="1.00" />
<rect shape-rendering="crispEdges" width="1" height="1" x="17" y="1" fill="#856c41" fill-opacity="1.00" />
<rect shape-rendering="crispEdges" width="1" height="1" x="18" y="1" fill="#7e4d4e" fill-opacity="1.00" />
<rect shape-rendering="crispEdges" width="1" height="1" x="19" y="1" fill="#5e4d36" fill-opacity="1.00" />
<rect shape-rendering="crispEdges" width="1" height="1" x="20" y="1" fill="#5e4d36" fill-opacity="1.00" />
<rect shape-rendering="crispEdges" width="1" height="1" x="21" y="1" fill="#5b4141" fill-opacity="1.00" />
<rect shape-rendering="crispEdges" width="1" height="1" x="22" y="1" fill="#000001" fill-opacity="1.00" />
<rect shape-rendering="crispEdges" width="1" height="1" x="15" y="2" fill="#000001" fill-opacity="1.00" />
<rect shape-rendering="crispEdges" width="1" height="1" x="16" y="2" fill="#7e4d4e" fill-opacity="1.00" />
<rect shape-rendering="crispEdges" width="1" height="1" x="17" y="2" fill="#5b4141" fill-opacity="1.00" />
<rect shape-rendering="crispEdges" width="1" height="1" x="18" y="2" fill="#553d30" fill-opacity="1.00" />
<rect shape-rendering="crispEdges" width="1" height="1" x="19" y="2" fill="#50352e" fill-opacity="1.00" />
<rect shape-rendering="crispEdges" width="1" height="1" x="20" y="2" fill="#50352e" fill-opacity="1.00" />
<rect shape-rendering="crispEdges" width="1" height="1" x="21" y="2" fill="#50352e" fill-opacity="1.00" />
<rect shape-rendering="crispEdges" width="1" height="1" x="22" y="2" fill="#5b4141" fill-opacity="1.00" />
<rect shape-rendering="crispEdges" width="1" height="1" x="23" y="2" fill="#000001" fill-opacity="1.00" />
<rect shape-rendering="crispEdges" width="1" height="1" x="14" y="3" fill="#0c0b0b" fill-opacity="1.00" />
<rect shape-rendering="crispEdges" width="1" height="1" x="15" y="3" fill="#715635" fill-opacity="1.00" />
<rect shape-rendering="crispEdges" width="1" height="1" x="16" y="3" fill="#715635" fill-opacity="1.00" />
<rect shape-rendering="crispEdges" width="1" height="1" x="17" y="3" fill="#50352e" fill-opacity="1.00" />
<rect shape-rendering="crispEdges" width="1" height="1" x="18" y="3" fill="#50352e" fill-opacity="1.00" />
<rect shape-rendering="crispEdges" width="1" height="1" x="19" y="3" fill="#000001" fill-opacity="1.00" />
<rect shape-rendering="crispEdges" width="1" height="1" x="20" y="3" fill="#000001" fill-opacity="1.00" />
<rect shape-rendering="crispEdges" width="1" height="1" x="21" y="3" fill="#50352e" fill-opacity="1.00" />
<rect shape-rendering="crispEdges" width="1" height="1" x="22" y="3" fill="#50352e" fill-opacity="1.00" />
<rect shape-rendering="crispEdges" width="1" height="1" x="23" y="3" fill="#5b4141" fill-opacity="1.00" />
<rect shape-rendering="crispEdges" width="1" height="1" x="24" y="3" fill="#000001" fill-opacity="1.00" />
<rect shape-rendering="crispEdges" width="1" height="1" x="13" y="4" fill="#000001" fill-opacity="1.00" />
<rect shape-rendering="crispEdges" width="1" height="1" x="14" y="4" fill="#715635" fill-opacity="1.00" />
<rect shape-rendering="crispEdges" width="1" height="1" x="15" y="4" fill="#715635" fill-opacity="1.00" />
<rect shape-rendering="crispEdges" width="1" height="1" x="16" y="4" fill="#553d30" fill-opacity="1.00" />
<rect shape-rendering="crispEdges" width="1" height="1" x="17" y="4" fill="#50352e" fill-opacity="1.00" />
<rect shape-rendering="crispEdges" width="1" height="1" x="18" y="4" fill="#000001" fill-opacity="1.00" />
<rect shape-rendering="crispEdges" width="1" height="1" x="21" y="4" fill="#000001" fill-opacity="1.00" />
<rect shape-rendering="crispEdges" width="1" height="1" x="22" y="4" fill="#50352e" fill-opacity="1.00" />
<rect shape-rendering="crispEdges" width="1" height="1" x="23" y="4" fill="#50352e" fill-opacity="1.00" />
<rect shape-rendering="crispEdges" width="1" height="1" x="24" y="4" fill="#000001" fill-opacity="1.00" />
<rect shape-rendering="crispEdges" width="1" height="1" x="12" y="5" fill="#000001" fill-opacity="1.00" />
<rect shape-rendering="crispEdges" width="1" height="1" x="13" y="5" fill="#715635" fill-opacity="1.00" />
<rect shape-rendering="crispEdges" width="1" height="1" x="14" y="5" fill="#715635" fill-opacity="1.00" />
<rect shape-rendering="crispEdges" width="1" height="1" x="15" y="5" fill="#553d30" fill-opacity="1.00" />
<rect shape-rendering="crispEdges" width="1" height="1" x="16" y="5" fill="#553d30" fill-opacity="1.00" />
<rect shape-rendering="crispEdges" width="1" height="1" x="17" y="5" fill="#50352e" fill-opacity="1.00" />
<rect shape-rendering="crispEdges" width="1" height="1" x="18" y="5" fill="#5b4141" fill-opacity="1.00" />
<rect shape-rendering="crispEdges" width="1" height="1" x="19" y="5" fill="#000001" fill-opacity="1.00" />
<rect shape-rendering="crispEdges" width="1" height="1" x="22" y="5" fill="#000001" fill-opacity="1.00" />
<rect shape-rendering="crispEdges" width="1" height="1" x="23" y="5" fill="#50352e" fill-opacity="1.00" />
<rect shape-rendering="crispEdges" width="1" height="1" x="24" y="5" fill="#000001" fill-opacity="1.00" />
<rect shape-rendering="crispEdges" width="1" height="1" x="11" y="6" fill="#000001" fill-opacity="1.00" />
<rect shape-rendering="crispEdges" width="1" height="1" x="12" y="6" fill="#715635" fill-opacity="1.00" />
<rect shape-rendering="crispEdges" width="1" height="1" x="13" y="6" fill="#5e4d36" fill-opacity="1.00" />
<rect shape-rendering="crispEdges" width="1" height="1" x="14" y="6" fill="#553d30" fill-opacity="1.00" />
<rect shape-rendering="crispEdges" width="1" height="1" x="15" y="6" fill="#5e4d36" fill-opacity="1.00" />
<rect shape-rendering="crispEdges" width="1" height="1" x="16" y="6" fill="#5e4d36" fill-opacity="1.00" />
<rect shape-rendering="crispEdges" width="1" height="1" x="17" y="6" fill="#553d30" fill-opacity="1.00" />
<rect shape-rendering="crispEdges" width="1" height="1" x="18" y="6" fill="#50352e" fill-opacity="1.00" />
<rect shape-rendering="crispEdges" width="1" height="1" x="19" y="6" fill="#5b4141" fill-opacity="1.00" />
<rect shape-rendering="crispEdges" width="1" height="1" x="20" y="6" fill="#000001" fill-opacity="1.00" />
<rect shape-rendering="crispEdges" width="1" height="1" x="22" y="6" fill="#000001" fill-opacity="1.00" />
<rect shape-rendering="crispEdges" width="1" height="1" x="23" y="6" fill="#50352e" fill-opacity="1.00" />
<rect shape-rendering="crispEdges" width="1" height="1" x="24" y="6" fill="#000001" fill-opacity="1.00" />
<rect shape-rendering="crispEdges" width="1" height="1" x="11" y="7" fill="#000001" fill-opacity="1.00" />
<rect shape-rendering="crispEdges" width="1" height="1" x="12" y="7" fill="#553d30" fill-opacity="1.00" />
<rect shape-rendering="crispEdges" width="1" height="1" x="13" y="7" fill="#715635" fill-opacity="1.00" />
<rect shape-rendering="crispEdges" width="1" height="1" x="14" y="7" fill="#553d30" fill-opacity="1.00" />
<rect shape-rendering="crispEdges" width="1" height="1" x="15" y="7" fill="#553d30" fill-opacity="1.00" />
<rect shape-rendering="crispEdges" width="1" height="1" x="16" y="7" fill="#553d30" fill-opacity="1.00" />
<rect shape-rendering="crispEdges" width="1" height="1" x="17" y="7" fill="#553d30" fill-opacity="1.00" />
<rect shape-rendering="crispEdges" width="1" height="1" x="18" y="7" fill="#553d30" fill-opacity="1.00" />
<rect shape-rendering="crispEdges" width="1" height="1" x="19" y="7" fill="#50352e" fill-opacity="1.00" />
<rect shape-rendering="crispEdges" width="1" height="1" x="20" y="7" fill="#5b4141" fill-opacity="1.00" />
<rect shape-rendering="crispEdges" width="1" height="1" x="21" y="7" fill="#000001" fill-opacity="1.00" />
<rect shape-rendering="crispEdges" width="1" height="1" x="22" y="7" fill="#000001" fill-opacity="1.00" />
<rect shape-rendering="crispEdges" width="1" height="1" x="23" y="7" fill="#553d30" fill-opacity="1.00" />
<rect shape-rendering="crispEdges" width="1" height="1" x="24" y="7" fill="#000001" fill-opacity="1.00" />
<rect shape-rendering="crispEdges" width="1" height="1" x="10" y="8" fill="#000001" fill-opacity="1.00" />
<rect shape-rendering="crispEdges" width="1" height="1" x="11" y="8" fill="#abafaa" fill-opacity="1.00" />
<rect shape-rendering="crispEdges" width="1" height="1" x="12" y="8" fill="#553d30" fill-opacity="1.00" />
<rect shape-rendering="crispEdges" width="1" height="1" x="13" y="8" fill="#423124" fill-opacity="1.00" />
<rect shape-rendering="crispEdges" width="1" height="1" x="14" y="8" fill="#553d30" fill-opacity="1.00" />
<rect shape-rendering="crispEdges" width="1" height="1" x="15" y="8" fill="#423124" fill-opacity="1.00" />
<rect shape-rendering="crispEdges" width="1" height="1" x="16" y="8" fill="#423124" fill-opacity="1.00" />
<rect shape-rendering="crispEdges" width="1" height="1" x="17" y="8" fill="#50352e" fill-opacity="1.00" />
<rect shape-rendering="crispEdges" width="1" height="1" x="18" y="8" fill="#553d30" fill-opacity="1.00" />
<rect shape-rendering="crispEdges" width="1" height="1" x="19" y="8" fill="#50352e" fill-opacity="1.00" />
<rect shape-rendering="crispEdges" width="1" height="1" x="20" y="8" fill="#50352e" fill-opacity="1.00" />
<rect shape-rendering="crispEdges" width="1" height="1" x="21" y="8" fill="#5b4141" fill-opacity="1.00" />
<rect shape-rendering="crispEdges" width="1" height="1" x="22" y="8" fill="#553d30" fill-opacity="1.00" />
<rect shape-rendering="crispEdges" width="1" height="1" x="23" y="8" fill="#423124" fill-opacity="1.00" />
<rect shape-rendering="crispEdges" width="1" height="1" x="24" y="8" fill="#000001" fill-opacity="1.00" />
<rect shape-rendering="crispEdges" width="1" height="1" x="9" y="9" fill="#000001" fill-opacity="1.00" />
<rect shape-rendering="crispEdges" width="1" height="1" x="10" y="9" fill="#abafaa" fill-opacity="1.00" />
<rect shape-rendering="crispEdges" width="1" height="1" x="11" y="9" fill="#8d8379" fill-opacity="1.00" />
<rect shape-rendering="crispEdges" width="1" height="1" x="12" y="9" fill="#787776" fill-opacity="1.00" />
<rect shape-rendering="crispEdges" width="1" height="1" x="13" y="9" fill="#423124" fill-opacity="1.00" />
<rect shape-rendering="crispEdges" width="1" height="1" x="14" y="9" fill="#423124" fill-opacity="1.00" />
<rect shape-rendering="crispEdges" width="1" height="1" x="15" y="9" fill="#595855" fill-opacity="1.00" />
<rect shape-rendering="crispEdges" width="1" height="1" x="16" y="9" fill="#595855" fill-opacity="1.00" />
<rect shape-rendering="crispEdges" width="1" height="1" x="17" y="9" fill="#423124" fill-opacity="1.00" />
<rect shape-rendering="crispEdges" width="1" height="1" x="18" y="9" fill="#423124" fill-opacity="1.00" />
<rect shape-rendering="crispEdges" width="1" height="1" x="19" y="9" fill="#553d30" fill-opacity="1.00" />
<rect shape-rendering="crispEdges" width="1" height="1" x="20" y="9" fill="#423124" fill-opacity="1.00" />
<rect shape-rendering="crispEdges" width="1" height="1" x="21" y="9" fill="#423124" fill-opacity="1.00" />
<rect shape-rendering="crispEdges" width="1" height="1" x="22" y="9" fill="#423124" fill-opacity="1.00" />
<rect shape-rendering="crispEdges" width="1" height="1" x="23" y="9" fill="#423124" fill-opacity="1.00" />
<rect shape-rendering="crispEdges" width="1" height="1" x="24" y="9" fill="#000001" fill-opacity="1.00" />
<rect shape-rendering="crispEdges" width="1" height="1" x="2" y="10" fill="#000001" fill-opacity="1.00" />
<rect shape-rendering="crispEdges" width="1" height="1" x="3" y="10" fill="#000001" fill-opacity="1.00" />
<rect shape-rendering="crispEdges" width="1" height="1" x="4" y="10" fill="#000001" fill-opacity="1.00" />
<rect shape-rendering="crispEdges" width="1" height="1" x="5" y="10" fill="#000001" fill-opacity="1.00" />
<rect shape-rendering="crispEdges" width="1" height="1" x="6" y="10" fill="#000001" fill-opacity="1.00" />
<rect shape-rendering="crispEdges" width="1" height="1" x="7" y="10" fill="#000001" fill-opacity="1.00" />
<rect shape-rendering="crispEdges" width="1" height="1" x="8" y="10" fill="#000001" fill-opacity="1.00" />
<rect shape-rendering="crispEdges" width="1" height="1" x="9" y="10" fill="#abafaa" fill-opacity="1.00" />
<rect shape-rendering="crispEdges" width="1" height="1" x="10" y="10" fill="#8d8379" fill-opacity="1.00" />
<rect shape-rendering="crispEdges" width="1" height="1" x="11" y="10" fill="#787776" fill-opacity="1.00" />
<rect shape-rendering="crispEdges" width="1" height="1" x="12" y="10" fill="#7a7166" fill-opacity="1.00" />
<rect shape-rendering="crispEdges" width="1" height="1" x="13" y="10" fill="#686663" fill-opacity="1.00" />
<rect shape-rendering="crispEdges" width="1" height="1" x="14" y="10" fill="#595855" fill-opacity="1.00" />
<rect shape-rendering="crispEdges" width="1" height="1" x="15" y="10" fill="#595855" fill-opacity="1.00" />
<rect shape-rendering="crispEdges" width="1" height="1" x="16" y="10" fill="#595855" fill-opacity="1.00" />
<rect shape-rendering="crispEdges" width="1" height="1" x="17" y="10" fill="#595855" fill-opacity="1.00" />
<rect shape-rendering="crispEdges" width="1" height="1" x="18" y="10" fill="#595855" fill-opacity="1.00" />
<rect shape-rendering="crispEdges" width="1" height="1" x="19" y="10" fill="#423124" fill-opacity="1.00" />
<rect shape-rendering="crispEdges" width="1" height="1" x="20" y="10" fill="#423124" fill-opacity="1.00" />
<rect shape-rendering="crispEdges" width="1" height="1" x="21" y="10" fill="#423124" fill-opacity="1.00" />
<rect shape-rendering="crispEdges" width="1" height="1" x="22" y="10" fill="#423124" fill-opacity="1.00" />
<rect shape-rendering="crispEdges" width="1" height="1" x="23" y="10" fill="#000001" fill-opacity="1.00" />
<rect shape-rendering="crispEdges" width="1" height="1" x="1" y="11" fill="#000001" fill-opacity="1.00" />
<rect shape-rendering="crispEdges" width="1" height="1" x="2" y="11" fill="#856c41" fill-opacity="1.00" />
<rect shape-rendering="crispEdges" width="1" height="1" x="3" y="11" fill="#8e5a56" fill-opacity="1.00" />
<rect shape-rendering="crispEdges" width="1" height="1" x="4" y="11" fill="#856c41" fill-opacity="1.00" />
<rect shape-rendering="crispEdges" width="1" height="1" x="5" y="11" fill="#8e5a56" fill-opacity="1.00" />
<rect shape-rendering="crispEdges" width="1" height="1" x="6" y="11" fill="#8e5a56" fill-opacity="1.00" />
<rect shape-rendering="crispEdges" width="1" height="1" x="7" y="11" fill="#0c0b0b" fill-opacity="1.00" />
<rect shape-rendering="crispEdges" width="1" height="1" x="8" y="11" fill="#abafaa" fill-opacity="1.00" />
<rect shape-rendering="crispEdges" width="1" height="1" x="9" y="11" fill="#8d8379" fill-opacity="1.00" />
<rect shape-rendering="crispEdges" width="1" height="1" x="10" y="11" fill="#787776" fill-opacity="1.00" />
<rect shape-rendering="crispEdges" width="1" height="1" x="11" y="11" fill="#787776" fill-opacity="1.00" />
<rect shape-rendering="crispEdges" width="1" height="1" x="12" y="11" fill="#686663" fill-opacity="1.00" />
<rect shape-rendering="crispEdges" width="1" height="1" x="13" y="11" fill="#686663" fill-opacity="1.00" />
<rect shape-rendering="crispEdges" width="1" height="1" x="14" y="11" fill="#595855" fill-opacity="1.00" />
<rect shape-rendering="crispEdges" width="1" height="1" x="15" y="11" fill="#595855" fill-opacity="1.00" />
<rect shape-rendering="crispEdges" width="1" height="1" x="16" y="11" fill="#595855" fill-opacity="1.00" />
<rect shape-rendering="crispEdges" width="1" height="1" x="17" y="11" fill="#000001" fill-opacity="1.00" />
<rect shape-rendering="crispEdges" width="1" height="1" x="18" y="11" fill="#000001" fill-opacity="1.00" />
<rect shape-rendering="crispEdges" width="1" height="1" x="19" y="11" fill="#000001" fill-opacity="1.00" />
<rect shape-rendering="crispEdges" width="1" height="1" x="20" y="11" fill="#000001" fill-opacity="1.00" />
<rect shape-rendering="crispEdges" width="1" height="1" x="21" y="11" fill="#000001" fill-opacity="1.00" />
<rect shape-rendering="crispEdges" width="1" height="1" x="22" y="11" fill="#000001" fill-opacity="1.00" />
<rect shape-rendering="crispEdges" width="1" height="1" x="1" y="12" fill="#000001" fill-opacity="1.00" />
<rect shape-rendering="crispEdges" width="1" height="1" x="2" y="12" fill="#715635" fill-opacity="1.00" />
<rect shape-rendering="crispEdges" width="1" height="1" x="3" y="12" fill="#715635" fill-opacity="1.00" />
<rect shape-rendering="crispEdges" width="1" height="1" x="4" y="12" fill="#8e5a56" fill-opacity="1.00" />
<rect shape-rendering="crispEdges" width="1" height="1" x="5" y="12" fill="#856c41" fill-opacity="1.00" />
<rect shape-rendering="crispEdges" width="1" height="1" x="6" y="12" fill="#0c0b0b" fill-opacity="1.00" />
<rect shape-rendering="crispEdges" width="1" height="1" x="7" y="12" fill="#abafaa" fill-opacity="1.00" />
<rect shape-rendering="crispEdges" width="1" height="1" x="8" y="12" fill="#8d8379" fill-opacity="1.00" />
<rect shape-rendering="crispEdges" width="1" height="1" x="9" y="12" fill="#787776" fill-opacity="1.00" />
<rect shape-rendering="crispEdges" width="1" height="1" x="10" y="12" fill="#787776" fill-opacity="1.00" />
<rect shape-rendering="crispEdges" width="1" height="1" x="11" y="12" fill="#686663" fill-opacity="1.00" />
<rect shape-rendering="crispEdges" width="1" height="1" x="12" y="12" fill="#686663" fill-opacity="1.00" />
<rect shape-rendering="crispEdges" width="1" height="1" x="13" y="12" fill="#595855" fill-opacity="1.00" />
<rect shape-rendering="crispEdges" width="1" height="1" x="14" y="12" fill="#686663" fill-opacity="1.00" />
<rect shape-rendering="crispEdges" width="1" height="1" x="15" y="12" fill="#595855" fill-opacity="1.00" />
<rect shape-rendering="crispEdges" width="1" height="1" x="16" y="12" fill="#595855" fill-opacity="1.00" />
<rect shape-rendering="crispEdges" width="1" height="1" x="17" y="12" fill="#000001" fill-opacity="1.00" />
<rect shape-rendering="crispEdges" width="1" height="1" x="1" y="13" fill="#000001" fill-opacity="1.00" />
<rect shape-rendering="crispEdges" width="1" height="1" x="2" y="13" fill="#715635" fill-opacity="1.00" />
<rect shape-rendering="crispEdges" width="1" height="1" x="3" y="13" fill="#715635" fill-opacity="1.00" />
<rect shape-rendering="crispEdges" width="1" height="1" x="4" y="13" fill="#715635" fill-opacity="1.00" />
<rect shape-rendering="crispEdges" width="1" height="1" x="5" y="13" fill="#000001" fill-opacity="1.00" />
<rect shape-rendering="crispEdges" width="1" height="1" x="6" y="13" fill="#abafaa" fill-opacity="1.00" />
<rect shape-rendering="crispEdges" width="1" height="1" x="7" y="13" fill="#7a7166" fill-opacity="1.00" />
<rect shape-rendering="crispEdges" width="1" height="1" x="8" y="13" fill="#7a7166" fill-opacity="1.00" />
<rect shape-rendering="crispEdges" width="1" height="1" x="9" y="13" fill="#7a7166" fill-opacity="1.00" />
<rect shape-rendering="crispEdges" width="1" height="1" x="10" y="13" fill="#686663" fill-opacity="1.00" />
<rect shape-rendering="crispEdges" width="1" height="1" x="11" y="13" fill="#686663" fill-opacity="1.00" />
<rect shape-rendering="crispEdges" width="1" height="1" x="12" y="13" fill="#686663" fill-opacity="1.00" />
<rect shape-rendering="crispEdges" width="1" height="1" x="13" y="13" fill="#686663" fill-opacity="1.00" />
<rect shape-rendering="crispEdges" width="1" height="1" x="14" y="13" fill="#686663" fill-opacity="1.00" />
<rect shape-rendering="crispEdges" width="1" height="1" x="15" y="13" fill="#000001" fill-opacity="1.00" />
<rect shape-rendering="crispEdges" width="1" height="1" x="16" y="13" fill="#000001" fill-opacity="1.00" />
<rect shape-rendering="crispEdges" width="1" height="1" x="17" y="13" fill="#000001" fill-opacity="1.00" />
<rect shape-rendering="crispEdges" width="1" height="1" x="1" y="14" fill="#000001" fill-opacity="1.00" />
<rect shape-rendering="crispEdges" width="1" height="1" x="2" y="14" fill="#715635" fill-opacity="1.00" />
<rect shape-rendering="crispEdges" width="1" height="1" x="3" y="14" fill="#715635" fill-opacity="1.00" />
<rect shape-rendering="crispEdges" width="1" height="1" x="4" y="14" fill="#000001" fill-opacity="1.00" />
<rect shape-rendering="crispEdges" width="1" height="1" x="5" y="14" fill="#abafaa" fill-opacity="1.00" />
<rect shape-rendering="crispEdges" width="1" height="1" x="6" y="14" fill="#553d30" fill-opacity="1.00" />
<rect shape-rendering="crispEdges" width="1" height="1" x="7" y="14" fill="#715635" fill-opacity="1.00" />
<rect shape-rendering="crispEdges" width="1" height="1" x="8" y="14" fill="#856c41" fill-opacity="1.00" />
<rect shape-rendering="crispEdges" width="1" height="1" x="9" y="14" fill="#856c41" fill-opacity="1.00" />
<rect shape-rendering="crispEdges" width="1" height="1" x="10" y="14" fill="#686663" fill-opacity="1.00" />
<rect shape-rendering="crispEdges" width="1" height="1" x="11" y="14" fill="#686663" fill-opacity="1.00" />
<rect shape-rendering="crispEdges" width="1" height="1" x="12" y="14" fill="#686663" fill-opacity="1.00" />
<rect shape-rendering="crispEdges" width="1" height="1" x="13" y="14" fill="#686663" fill-opacity="1.00" />
<rect shape-rendering="crispEdges" width="1" height="1" x="14" y="14" fill="#686663" fill-opacity="1.00" />
<rect shape-rendering="crispEdges" width="1" height="1" x="15" y="14" fill="#000001" fill-opacity="1.00" />
<rect shape-rendering="crispEdges" width="1" height="1" x="1" y="15" fill="#000001" fill-opacity="1.00" />
<rect shape-rendering="crispEdges" width="1" height="1" x="2" y="15" fill="#715635" fill-opacity="1.00" />
<rect shape-rendering="crispEdges" width="1" height="1" x="3" y="15" fill="#0c0b0b" fill-opacity="1.00" />
<rect shape-rendering="crispEdges" width="1" height="1" x="4" y="15" fill="#abafaa" fill-opacity="1.00" />
<rect shape-rendering="crispEdges" width="1" height="1" x="5" y="15" fill="#686663" fill-opacity="1.00" />
<rect shape-rendering="crispEdges" width="1" height="1" x="6" y="15" fill="#715635" fill-opacity="1.00" />
<rect shape-rendering="crispEdges" width="1" height="1" x="7" y="15" fill="#715635" fill-opacity="1.00" />
<rect shape-rendering="crispEdges" width="1" height="1" x="8" y="15" fill="#8e5a56" fill-opacity="1.00" />
<rect shape-rendering="crispEdges" width="1" height="1" x="9" y="15" fill="#856c41" fill-opacity="1.00" />
<rect shape-rendering="crispEdges" width="1" height="1" x="10" y="15" fill="#856c41" fill-opacity="1.00" />
<rect shape-rendering="crispEdges" width="1" height="1" x="11" y="15" fill="#856c41" fill-opacity="1.00" />
<rect shape-rendering="crispEdges" width="1" height="1" x="12" y="15" fill="#856c41" fill-opacity="1.00" />
<rect shape-rendering="crispEdges" width="1" height="1" x="13" y="15" fill="#715635" fill-opacity="1.00" />
<rect shape-rendering="crispEdges" width="1" height="1" x="14" y="15" fill="#0c0b0b" fill-opacity="1.00" />
<rect shape-rendering="crispEdges" width="1" height="1" x="15" y="15" fill="#000001" fill-opacity="1.00" />
<rect shape-rendering="crispEdges" width="1" height="1" x="16" y="15" fill="#000001" fill-opacity="1.00" />
<rect shape-rendering="crispEdges" width="1" height="1" x="1" y="16" fill="#000001" fill-opacity="1.00" />
<rect shape-rendering="crispEdges" width="1" height="1" x="2" y="16" fill="#000001" fill-opacity="1.00" />
<rect shape-rendering="crispEdges" width="1" height="1" x="3" y="16" fill="#abafaa" fill-opacity="1.00" />
<rect shape-rendering="crispEdges" width="1" height="1" x="4" y="16" fill="#8d8379" fill-opacity="1.00" />
<rect shape-rendering="crispEdges" width="1" height="1" x="5" y="16" fill="#715635" fill-opacity="1.00" />
<rect shape-rendering="crispEdges" width="1" height="1" x="6" y="16" fill="#715635" fill-opacity="1.00" />
<rect shape-rendering="crispEdges" width="1" height="1" x="7" y="16" fill="#715635" fill-opacity="1.00" />
<rect shape-rendering="crispEdges" width="1" height="1" x="8" y="16" fill="#715635" fill-opacity="1.00" />
<rect shape-rendering="crispEdges" width="1" height="1" x="9" y="16" fill="#8e5a56" fill-opacity="1.00" />
<rect shape-rendering="crispEdges" width="1" height="1" x="10" y="16" fill="#856c41" fill-opacity="1.00" />
<rect shape-rendering="crispEdges" width="1" height="1" x="11" y="16" fill="#856c41" fill-opacity="1.00" />
<rect shape-rendering="crispEdges" width="1" height="1" x="12" y="16" fill="#7a7166" fill-opacity="1.00" />
<rect shape-rendering="crispEdges" width="1" height="1" x="13" y="16" fill="#856c41" fill-opacity="1.00" />
<rect shape-rendering="crispEdges" width="1" height="1" x="14" y="16" fill="#856c41" fill-opacity="1.00" />
<rect shape-rendering="crispEdges" width="1" height="1" x="15" y="16" fill="#856c41" fill-opacity="1.00" />
<rect shape-rendering="crispEdges" width="1" height="1" x="16" y="16" fill="#000001" fill-opacity="1.00" />
<rect shape-rendering="crispEdges" width="1" height="1" x="17" y="16" fill="#000001" fill-opacity="1.00" />
<rect shape-rendering="crispEdges" width="1" height="1" x="1" y="17" fill="#000001" fill-opacity="1.00" />
<rect shape-rendering="crispEdges" width="1" height="1" x="2" y="17" fill="#abafaa" fill-opacity="1.00" />
<rect shape-rendering="crispEdges" width="1" height="1" x="3" y="17" fill="#8d8379" fill-opacity="1.00" />
<rect shape-rendering="crispEdges" width="1" height="1" x="4" y="17" fill="#787776" fill-opacity="1.00" />
<rect shape-rendering="crispEdges" width="1" height="1" x="5" y="17" fill="#715635" fill-opacity="1.00" />
<rect shape-rendering="crispEdges" width="1" height="1" x="6" y="17" fill="#715635" fill-opacity="1.00" />
<rect shape-rendering="crispEdges" width="1" height="1" x="7" y="17" fill="#715635" fill-opacity="1.00" />
<rect shape-rendering="crispEdges" width="1" height="1" x="8" y="17" fill="#715635" fill-opacity="1.00" />
<rect shape-rendering="crispEdges" width="1" height="1" x="9" y="17" fill="#715635" fill-opacity="1.00" />
<rect shape-rendering="crispEdges" width="1" height="1" x="10" y="17" fill="#8e5a56" fill-opacity="1.00" />
<rect shape-rendering="crispEdges" width="1" height="1" x="11" y="17" fill="#856c41" fill-opacity="1.00" />
<rect shape-rendering="crispEdges" width="1" height="1" x="12" y="17" fill="#8e5a56" fill-opacity="1.00" />
<rect shape-rendering="crispEdges" width="1" height="1" x="13" y="17" fill="#8e5a56" fill-opacity="1.00" />
<rect shape-rendering="crispEdges" width="1" height="1" x="14" y="17" fill="#8e5a56" fill-opacity="1.00" />
<rect shape-rendering="crispEdges" width="1" height="1" x="15" y="17" fill="#8e5a56" fill-opacity="1.00" />
<rect shape-rendering="crispEdges" width="1" height="1" x="16" y="17" fill="#8e5a56" fill-opacity="1.00" />
<rect shape-rendering="crispEdges" width="1" height="1" x="17" y="17" fill="#0c0b0b" fill-opacity="1.00" />
<rect shape-rendering="crispEdges" width="1" height="1" x="18" y="17" fill="#000001" fill-opacity="1.00" />
<rect shape-rendering="crispEdges" width="1" height="1" x="0" y="18" fill="#000001" fill-opacity="1.00" />
<rect shape-rendering="crispEdges" width="1" height="1" x="1" y="18" fill="#abafaa" fill-opacity="1.00" />
<rect shape-rendering="crispEdges" width="1" height="1" x="2" y="18" fill="#8d8379" fill-opacity="1.00" />
<rect shape-rendering="crispEdges" width="1" height="1" x="3" y="18" fill="#787776" fill-opacity="1.00" />
<rect shape-rendering="crispEdges" width="1" height="1" x="4" y="18" fill="#686663" fill-opacity="1.00" />
<rect shape-rendering="crispEdges" width="1" height="1" x="5" y="18" fill="#715635" fill-opacity="1.00" />
<rect shape-rendering="crispEdges" width="1" height="1" x="6" y="18" fill="#715635" fill-opacity="1.00" />
<rect shape-rendering="crispEdges" width="1" height="1" x="7" y="18" fill="#715635" fill-opacity="1.00" />
<rect shape-rendering="crispEdges" width="1" height="1" x="8" y="18" fill="#715635" fill-opacity="1.00" />
<rect shape-rendering="crispEdges" width="1" height="1" x="9" y="18" fill="#715635" fill-opacity="1.00" />
<rect shape-rendering="crispEdges" width="1" height="1" x="10" y="18" fill="#715635" fill-opacity="1.00" />
<rect shape-rendering="crispEdges" width="1" height="1" x="11" y="18" fill="#8e5a56" fill-opacity="1.00" />
<rect shape-rendering="crispEdges" width="1" height="1" x="12" y="18" fill="#553d30" fill-opacity="1.00" />
<rect shape-rendering="crispEdges" width="1" height="1" x="13" y="18" fill="#553d30" fill-opacity="1.00" />
<rect shape-rendering="crispEdges" width="1" height="1" x="14" y="18" fill="#553d30" fill-opacity="1.00" />
<rect shape-rendering="crispEdges" width="1" height="1" x="15" y="18" fill="#553d30" fill-opacity="1.00" />
<rect shape-rendering="crispEdges" width="1" height="1" x="16" y="18" fill="#553d30" fill-opacity="1.00" />
<rect shape-rendering="crispEdges" width="1" height="1" x="17" y="18" fill="#553d30" fill-opacity="1.00" />
<rect shape-rendering="crispEdges" width="1" height="1" x="18" y="18" fill="#0c0b0b" fill-opacity="1.00" />
<rect shape-rendering="crispEdges" width="1" height="1" x="19" y="18" fill="#000001" fill-opacity="1.00" />
<rect shape-rendering="crispEdges" width="1" height="1" x="0" y="19" fill="#000001" fill-opacity="1.00" />
<rect shape-rendering="crispEdges" width="1" height="1" x="1" y="19" fill="#000001" fill-opacity="1.00" />
<rect shape-rendering="crispEdges" width="1" height="1" x="2" y="19" fill="#787776" fill-opacity="1.00" />
<rect shape-rendering="crispEdges" width="1" height="1" x="3" y="19" fill="#686663" fill-opacity="1.00" />
<rect shape-rendering="crispEdges" width="1" height="1" x="4" y="19" fill="#595855" fill-opacity="1.00" />
<rect shape-rendering="crispEdges" width="1" height="1" x="5" y="19" fill="#715635" fill-opacity="1.00" />
<rect shape-rendering="crispEdges" width="1" height="1" x="6" y="19" fill="#715635" fill-opacity="1.00" />
<rect shape-rendering="crispEdges" width="1" height="1" x="7" y="19" fill="#715635" fill-opacity="1.00" />
<rect shape-rendering="crispEdges" width="1" height="1" x="8" y="19" fill="#715635" fill-opacity="1.00" />
<rect shape-rendering="crispEdges" width="1" height="1" x="9" y="19" fill="#715635" fill-opacity="1.00" />
<rect shape-rendering="crispEdges" width="1" height="1" x="10" y="19" fill="#715635" fill-opacity="1.00" />
<rect shape-rendering="crispEdges" width="1" height="1" x="11" y="19" fill="#553d30" fill-opacity="1.00" />
<rect shape-rendering="crispEdges" width="1" height="1" x="12" y="19" fill="#5e4d36" fill-opacity="1.00" />
<rect shape-rendering="crispEdges" width="1" height="1" x="13" y="19" fill="#5e4d36" fill-opacity="1.00" />
<rect shape-rendering="crispEdges" width="1" height="1" x="14" y="19" fill="#5e4d36" fill-opacity="1.00" />
<rect shape-rendering="crispEdges" width="1" height="1" x="15" y="19" fill="#5e4d36" fill-opacity="1.00" />
<rect shape-rendering="crispEdges" width="1" height="1" x="16" y="19" fill="#715635" fill-opacity="1.00" />
<rect shape-rendering="crispEdges" width="1" height="1" x="17" y="19" fill="#715635" fill-opacity="1.00" />
<rect shape-rendering="crispEdges" width="1" height="1" x="18" y="19" fill="#553d30" fill-opacity="1.00" />
<rect shape-rendering="crispEdges" width="1" height="1" x="19" y="19" fill="#000001" fill-opacity="1.00" />
<rect shape-rendering="crispEdges" width="1" height="1" x="1" y="20" fill="#000001" fill-opacity="1.00" />
<rect shape-rendering="crispEdges" width="1" height="1" x="2" y="20" fill="#000001" fill-opacity="1.00" />
<rect shape-rendering="crispEdges" width="1" height="1" x="3" y="20" fill="#686663" fill-opacity="1.00" />
<rect shape-rendering="crispEdges" width="1" height="1" x="4" y="20" fill="#45834b" fill-opacity="1.00" />
<rect shape-rendering="crispEdges" width="1" height="1" x="5" y="20" fill="#595855" fill-opacity="1.00" />
<rect shape-rendering="crispEdges" width="1" height="1" x="6" y="20" fill="#715635" fill-opacity="1.00" />
<rect shape-rendering="crispEdges" width="1" height="1" x="7" y="20" fill="#715635" fill-opacity="1.00" />
<rect shape-rendering="crispEdges" width="1" height="1" x="8" y="20" fill="#715635" fill-opacity="1.00" />
<rect shape-rendering="crispEdges" width="1" height="1" x="9" y="20" fill="#715635" fill-opacity="1.00" />
<rect shape-rendering="crispEdges" width="1" height="1" x="10" y="20" fill="#715635" fill-opacity="1.00" />
<rect shape-rendering="crispEdges" width="1" height="1" x="11" y="20" fill="#553d30" fill-opacity="1.00" />
<rect shape-rendering="crispEdges" width="1" height="1" x="12" y="20" fill="#715635" fill-opacity="1.00" />
<rect shape-rendering="crispEdges" width="1" height="1" x="13" y="20" fill="#5e4d36" fill-opacity="1.00" />
<rect shape-rendering="crispEdges" width="1" height="1" x="14" y="20" fill="#715635" fill-opacity="1.00" />
<rect shape-rendering="crispEdges" width="1" height="1" x="15" y="20" fill="#715635" fill-opacity="1.00" />
<rect shape-rendering="crispEdges" width="1" height="1" x="16" y="20" fill="#5e4d36" fill-opacity="1.00" />
<rect shape-rendering="crispEdges" width="1" height="1" x="17" y="20" fill="#715635" fill-opacity="1.00" />
<rect shape-rendering="crispEdges" width="1" height="1" x="18" y="20" fill="#5e4d36" fill-opacity="1.00" />
<rect shape-rendering="crispEdges" width="1" height="1" x="19" y="20" fill="#000001" fill-opacity="1.00" />
<rect shape-rendering="crispEdges" width="1" height="1" x="2" y="21" fill="#000001" fill-opacity="1.00" />
<rect shape-rendering="crispEdges" width="1" height="1" x="3" y="21" fill="#000001" fill-opacity="1.00" />
<rect shape-rendering="crispEdges" width="1" height="1" x="4" y="21" fill="#595855" fill-opacity="1.00" />
<rect shape-rendering="crispEdges" width="1" height="1" x="5" y="21" fill="#000001" fill-opacity="1.00" />
<rect shape-rendering="crispEdges" width="1" height="1" x="6" y="21" fill="#000001" fill-opacity="1.00" />
<rect shape-rendering="crispEdges" width="1" height="1" x="7" y="21" fill="#230c25" fill-opacity="1.00" />
<rect shape-rendering="crispEdges" width="1" height="1" x="8" y="21" fill="#715635" fill-opacity="1.00" />
<rect shape-rendering="crispEdges" width="1" height="1" x="9" y="21" fill="#715635" fill-opacity="1.00" />
<rect shape-rendering="crispEdges" width="1" height="1" x="10" y="21" fill="#715635" fill-opacity="1.00" />
<rect shape-rendering="crispEdges" width="1" height="1" x="11" y="21" fill="#553d30" fill-opacity="1.00" />
<rect shape-rendering="crispEdges" width="1" height="1" x="12" y="21" fill="#715635" fill-opacity="1.00" />
<rect shape-rendering="crispEdges" width="1" height="1" x="13" y="21" fill="#5e4d36" fill-opacity="1.00" />
<rect shape-rendering="crispEdges" width="1" height="1" x="14" y="21" fill="#553d30" fill-opacity="1.00" />
<rect shape-rendering="crispEdges" width="1" height="1" x="15" y="21" fill="#5e4d36" fill-opacity="1.00" />
<rect shape-rendering="crispEdges" width="1" height="1" x="16" y="21" fill="#5e4d36" fill-opacity="1.00" />
<rect shape-rendering="crispEdges" width="1" height="1" x="17" y="21" fill="#715635" fill-opacity="1.00" />
<rect shape-rendering="crispEdges" width="1" height="1" x="18" y="21" fill="#5e4d36" fill-opacity="1.00" />
<rect shape-rendering="crispEdges" width="1" height="1" x="19" y="21" fill="#000001" fill-opacity="1.00" />
<rect shape-rendering="crispEdges" width="1" height="1" x="3" y="22" fill="#000001" fill-opacity="1.00" />
<rect shape-rendering="crispEdges" width="1" height="1" x="4" y="22" fill="#000001" fill-opacity="1.00" />
<rect shape-rendering="crispEdges" width="1" height="1" x="5" y="22" fill="#000001" fill-opacity="1.00" />
<rect shape-rendering="crispEdges" width="1" height="1" x="7" y="22" fill="#000001" fill-opacity="1.00" />
<rect shape-rendering="crispEdges" width="1" height="1" x="8" y="22" fill="#0c0b0b" fill-opacity="1.00" />
<rect shape-rendering="crispEdges" width="1" height="1" x="9" y="22" fill="#715635" fill-opacity="1.00" />
<rect shape-rendering="crispEdges" width="1" height="1" x="10" y="22" fill="#715635" fill-opacity="1.00" />
<rect shape-rendering="crispEdges" width="1" height="1" x="11" y="22" fill="#5e4d36" fill-opacity="1.00" />
<rect shape-rendering="crispEdges" width="1" height="1" x="12" y="22" fill="#5e4d36" fill-opacity="1.00" />
<rect shape-rendering="crispEdges" width="1" height="1" x="13" y="22" fill="#715635" fill-opacity="1.00" />
<rect shape-rendering="crispEdges" width="1" height="1" x="14" y="22" fill="#715635" fill-opacity="1.00" />
<rect shape-rendering="crispEdges" width="1" height="1" x="15" y="22" fill="#715635" fill-opacity="1.00" />
<rect shape-rendering="crispEdges" width="1" height="1" x="16" y="22" fill="#5e4d36" fill-opacity="1.00" />
<rect shape-rendering="crispEdges" width="1" height="1" x="17" y="22" fill="#715635" fill-opacity="1.00" />
<rect shape-rendering="crispEdges" width="1" height="1" x="18" y="22" fill="#5e4d36" fill-opacity="1.00" />
<rect shape-rendering="crispEdges" width="1" height="1" x="19" y="22" fill="#000001" fill-opacity="1.00" />
<rect shape-rendering="crispEdges" width="1" height="1" x="8" y="23" fill="#000001" fill-opacity="1.00" />
<rect shape-rendering="crispEdges" width="1" height="1" x="9" y="23" fill="#000001" fill-opacity="1.00" />
<rect shape-rendering="crispEdges" width="1" height="1" x="10" y="23" fill="#5e4d36" fill-opacity="1.00" />
<rect shape-rendering="crispEdges" width="1" height="1" x="11" y="23" fill="#553d30" fill-opacity="1.00" />
<rect shape-rendering="crispEdges" width="1" height="1" x="12" y="23" fill="#5e4d36" fill-opacity="1.00" />
<rect shape-rendering="crispEdges" width="1" height="1" x="13" y="23" fill="#5e4d36" fill-opacity="1.00" />
<rect shape-rendering="crispEdges" width="1" height="1" x="14" y="23" fill="#5e4d36" fill-opacity="1.00" />
<rect shape-rendering="crispEdges" width="1" height="1" x="15" y="23" fill="#5e4d36" fill-opacity="1.00" />
<rect shape-rendering="crispEdges" width="1" height="1" x="16" y="23" fill="#5e4d36" fill-opacity="1.00" />
<rect shape-rendering="crispEdges" width="1" height="1" x="17" y="23" fill="#5e4d36" fill-opacity="1.00" />
<rect shape-rendering="crispEdges" width="1" height="1" x="18" y="23" fill="#423124" fill-opacity="1.00" />
<rect shape-rendering="crispEdges" width="1" height="1" x="19" y="23" fill="#000001" fill-opacity="1.00" />
<rect shape-rendering="crispEdges" width="1" height="1" x="9" y="24" fill="#000001" fill-opacity="1.00" />
<rect shape-rendering="crispEdges" width="1" height="1" x="10" y="24" fill="#000001" fill-opacity="1.00" />
<rect shape-rendering="crispEdges" width="1" height="1" x="11" y="24" fill="#000001" fill-opacity="1.00" />
<rect shape-rendering="crispEdges" width="1" height="1" x="12" y="24" fill="#000001" fill-opacity="1.00" />
<rect shape-rendering="crispEdges" width="1" height="1" x="13" y="24" fill="#000001" fill-opacity="1.00" />
<rect shape-rendering="crispEdges" width="1" height="1" x="14" y="24" fill="#000001" fill-opacity="1.00" />
<rect shape-rendering="crispEdges" width="1" height="1" x="15" y="24" fill="#000001" fill-opacity="1.00" />
<rect shape-rendering="crispEdges" width="1" height="1" x="16" y="24" fill="#000001" fill-opacity="1.00" />
<rect shape-rendering="crispEdges" width="1" height="1" x="17" y="24" fill="#000001" fill-opacity="1.00" />
<rect shape-rendering="crispEdges" width="1" height="1" x="18" y="24" fill="#000001" fill-opacity="1.00" />
<rect shape-rendering="crispEdges" width="1" height="1" x="19" y="24" fill="#000001" fill-opacity="1.00" />
</svg>
