<?xml version="1.0" encoding="UTF-8" standalone="no"?>
<!-- Created with Inkscape (http://www.inkscape.org/) -->

<svg
   xmlns:dc="http://purl.org/dc/elements/1.1/"
   xmlns:cc="http://creativecommons.org/ns#"
   xmlns:rdf="http://www.w3.org/1999/02/22-rdf-syntax-ns#"
   xmlns:svg="http://www.w3.org/2000/svg"
   xmlns="http://www.w3.org/2000/svg"
   xmlns:sodipodi="http://sodipodi.sourceforge.net/DTD/sodipodi-0.dtd"
   xmlns:inkscape="http://www.inkscape.org/namespaces/inkscape"
   width="34.508842mm"
   height="80.755981mm"
   viewBox="0 0 34.508842 80.755981"
   version="1.1"
   id="svg2496"
   inkscape:version="0.92.4 5da689c313, 2019-01-14"
   sodipodi:docname="myth.svg">
  <defs
     id="defs2490" />
  <sodipodi:namedview
     id="base"
     pagecolor="#ffffff"
     bordercolor="#666666"
     borderopacity="1.0"
     inkscape:pageopacity="0.0"
     inkscape:pageshadow="2"
     inkscape:zoom="1.979899"
     inkscape:cx="44.848768"
     inkscape:cy="162.38541"
     inkscape:document-units="mm"
     inkscape:current-layer="layer1"
     showgrid="false"
     fit-margin-top="0"
     fit-margin-left="0"
     fit-margin-right="0"
     fit-margin-bottom="0"
     inkscape:window-width="1598"
     inkscape:window-height="880"
     inkscape:window-x="0"
     inkscape:window-y="18"
     inkscape:window-maximized="0" />
  <metadata
     id="metadata2493">
    <rdf:RDF>
      <cc:Work
         rdf:about="">
        <dc:format>image/svg+xml</dc:format>
        <dc:type
           rdf:resource="http://purl.org/dc/dcmitype/StillImage" />
        <dc:title />
      </cc:Work>
    </rdf:RDF>
  </metadata>
  <g
     inkscape:label="Layer 1"
     inkscape:groupmode="layer"
     id="layer1"
     transform="translate(0,-216.24402)">
    <path
       inkscape:connector-curvature="0"
       id="path2445"
       d="m 14.901205,292.47044 c -0.876084,-1.18158 -2.488391,-3.11225 -3.582906,-4.29039 l -1.990027,-2.14207 0.06614,0.982 c 0.09517,1.41318 -0.195054,1.58546 -2.142502,1.27184 -1.705451,-0.27466 -5.638725,-2.30008 -5.927368,-3.05227 -0.07626,-0.19872 -0.267788,-7.12914 -0.425629,-15.40095 -0.157841,-8.2718 -0.42068,-20.63558 -0.584087,-27.47506 -0.291202,-12.18844 -0.231897,-16.70511 0.253091,-19.2753 0.212986,-1.12872 0.478302,-1.50527 2.198316,-3.11993 1.075854,-1.00996 2.313285,-1.99686 2.749847,-2.19312 0.436563,-0.19626 2.103438,-0.49581 3.704167,-0.66568 1.600729,-0.16987 3.707257,-0.42103 4.681174,-0.55814 2.253302,-0.31721 4.007314,-0.31508 6.682177,0.008 1.171719,0.14159 3.595034,0.42368 5.385144,0.62686 l 3.254745,0.36943 2.062895,1.95283 c 1.134592,1.07405 2.187908,2.25048 2.340703,2.61428 0.677838,1.61392 0.941599,4.53177 0.770802,8.52697 -0.09501,2.22241 -0.240038,6.89824 -0.322283,10.39074 -0.137055,5.81984 -0.451761,15.33101 -1.181865,35.71875 -0.151125,4.2201 -0.328435,7.92353 -0.39402,8.22985 -0.186193,0.86959 -3.957963,2.93835 -5.938843,3.25736 -2.019838,0.32529 -2.390876,0.1911 -2.394606,-0.86604 l -0.0029,-0.83159 -0.687705,0.87268 c -0.378239,0.47997 -1.223931,1.37294 -1.879317,1.98438 -0.655386,0.61143 -1.907287,2.03442 -2.782002,3.16221 -0.874716,1.12779 -1.754604,2.05052 -1.955307,2.05052 -0.200704,0 -1.081712,-0.96674 -1.957795,-2.14831 z m 2.890321,-1.43247 c 1.772747,-2.01905 1.724005,-1.77688 1.371683,-6.81486 -0.347589,-4.97031 -0.451995,-5.74394 -0.775174,-5.74394 -0.118159,0 -0.374134,0.29765 -0.568835,0.66146 -0.474101,0.88586 -1.096052,0.83371 -1.825625,-0.15309 -0.331222,-0.44801 -0.643058,-0.77372 -0.692969,-0.72381 -0.04991,0.0499 -0.290927,2.44101 -0.53559,5.31355 -0.423815,4.97594 -0.422716,5.25714 0.02326,5.94932 0.651319,1.01089 1.80596,2.40428 2.011327,2.42721 0.09407,0.0105 0.540431,-0.40162 0.991923,-0.91584 z m -5.792059,-5.21661 c 6.09e-4,-0.0364 0.297767,-2.38787 0.660358,-5.22553 0.362591,-2.83765 0.659752,-5.29751 0.660357,-5.46634 0.0021,-0.58599 -2.121395,-3.00032 -2.638895,-3.00032 -0.586539,0 -0.558601,-0.1227 -1.317257,5.78544 -0.592348,4.613 -0.547836,4.8738 1.168823,6.84841 0.801988,0.9225 1.460961,1.39803 1.466614,1.05834 z m 11.478911,-1.48024 c 0.525473,-0.63224 0.954672,-1.40614 0.953777,-1.7198 -8.96e-4,-0.31365 -0.238288,-2.53481 -0.527539,-4.9359 -0.289251,-2.4011 -0.526643,-4.51445 -0.527539,-4.69636 -0.003,-0.61818 -0.73793,-0.33372 -1.561719,0.60452 -0.990529,1.12815 -0.998595,1.33167 -0.288021,7.26684 0.287465,2.40109 0.523233,4.46484 0.52393,4.58611 0.0024,0.40955 0.467262,0.0494 1.427111,-1.10541 z M 5.80746,282.07641 6.252494,280.6646 5.355118,279.18252 c -0.493557,-0.81515 -0.982084,-1.48547 -1.085616,-1.4896 -0.327427,-0.013 -0.790992,2.17394 -0.63069,2.97545 0.251155,1.25578 1.183107,3.1539 1.463451,2.98064 0.14309,-0.0884 0.460429,-0.7961 0.705197,-1.5726 z m 2.4536,-4.06026 c 0.02891,-1.41883 0.288362,-3.73949 0.576553,-5.15703 0.467006,-2.29708 0.482903,-2.67566 0.146192,-3.48152 -0.622229,-1.48921 -2.299149,-3.94865 -2.521987,-3.69885 -0.114181,0.12799 -0.521547,2.47099 -0.905259,5.20667 l -0.697659,4.97396 0.68669,1.37604 c 0.517985,1.03798 2.333659,3.36041 2.627161,3.36041 0.01966,0 0.0594,-1.16085 0.08831,-2.57968 z m 11.298454,-4.89402 c 1.277384,-1.78305 2.900083,-4.07724 3.605999,-5.0982 l 1.283484,-1.85627 -0.26463,-1.98018 c -0.145546,-1.0891 -0.45703,-3.46847 -0.692186,-5.28748 -0.609834,-4.71726 -2.771376,-16.23659 -3.110311,-16.57552 -0.05509,-0.0551 -0.531348,0.08 -1.05834,0.30018 -2.115799,0.88403 -4.004171,0.34829 -5.679077,-1.61118 -0.694913,-0.81298 -1.188181,-1.19084 -1.340086,-1.02657 -0.62134,0.67194 -4.487513,23.60675 -4.179237,24.79196 0.08633,0.33188 1.439602,2.2234 3.007283,4.20338 1.56768,1.97998 3.496634,4.50396 4.286562,5.60886 0.789928,1.10489 1.522136,1.95581 1.627128,1.89092 0.104992,-0.0649 1.236026,-1.57685 2.513411,-3.3599 z M 4.82885,265.44844 c 0.151984,-0.76398 0.943566,-4.82958 1.759073,-9.03466 0.815506,-4.20508 2.004211,-10.14416 2.641566,-13.19796 1.089304,-5.21926 1.134342,-5.59972 0.750712,-6.34158 -0.224464,-0.43406 -0.500707,-0.68623 -0.613874,-0.56037 -0.113167,0.12586 -0.706496,2.66962 -1.31851,5.6528 -0.612014,2.98318 -1.870275,8.34099 -2.796137,11.90625 -2.323914,8.94881 -2.437364,9.56007 -2.001179,10.78215 0.712854,1.99723 0.801927,2.18243 1.049642,2.18243 0.138806,0 0.376724,-0.62508 0.528707,-1.38906 z m 11.136791,-26.75122 c -8.2e-4,-0.16634 -0.128553,-0.76007 -0.28387,-1.31942 -0.342778,-1.23446 -0.235479,-1.37305 0.787033,-1.01661 0.691638,0.24111 0.922202,0.18182 1.799443,-0.46271 0.553388,-0.40659 1.264858,-1.02329 1.581042,-1.37043 0.702961,-0.77179 2.54811,-4.21096 2.360095,-4.39897 -0.07462,-0.0746 -0.709,0.34435 -1.409741,0.93104 -2.157564,1.80642 -4.877525,1.76649 -6.945669,-0.10195 -2.034943,-1.83845 -3.960267,-4.48269 -4.676547,-6.42278 -0.585544,-1.58599 -0.791222,-1.8833 -1.302822,-1.8833 -0.33413,0 -0.676998,0.11243 -0.761929,0.24985 -0.280717,0.45421 0.654536,4.05892 2.049154,7.89796 1.468202,4.04161 2.264565,5.28325 4.759267,7.42038 1.185613,1.01568 2.048154,1.21688 2.044544,0.47694 z m 10.693581,-14.21335 c 0.818475,-0.9727 0.878927,-1.5672 0.159361,-1.5672 -0.35399,0 -0.656363,0.31292 -0.926041,0.95835 -0.698341,1.67137 -0.356079,1.94317 0.76668,0.60885 z"
       style="fill:#d5d1d1;stroke-width:0.26458332" />
    <path
       inkscape:connector-curvature="0"
       id="path2443"
       d="m 15.275049,292.70052 c -0.688688,-0.9095 -1.916038,-2.3765 -2.727443,-3.25999 -0.811404,-0.88349 -1.97994,-2.19318 -2.596746,-2.91042 l -1.121464,-1.30407 0.158866,1.35516 c 0.09067,0.7734 0.04879,1.42319 -0.09754,1.51363 -0.628391,0.38837 -3.384476,-0.3804 -5.11733,-1.42741 -0.99016,-0.59826 -1.912943,-1.22685 -2.050628,-1.39686 -0.246976,-0.30495 -0.401924,-5.32417 -1.259363,-40.79437 -0.549231,-22.7204 -0.719283,-21.52402 3.59006,-25.25727 l 1.543133,-1.33684 5.758354,-0.81903 5.758355,-0.81903 5.446178,0.70891 c 2.995398,0.38989 5.815952,0.82324 6.2679,0.96299 0.465744,0.14402 1.688412,1.1447 2.822356,2.30994 1.592423,1.63636 2.036265,2.26908 2.17525,3.10093 0.09604,0.5748 0.284247,1.38957 0.418243,1.81061 0.220811,0.69382 -0.246647,16.94804 -1.069904,37.20219 -0.138998,3.41973 -0.389466,9.90864 -0.556596,14.41979 -0.167126,4.51114 -0.421362,8.34729 -0.564964,8.52477 -0.653743,0.80796 -4.121126,2.5237 -5.501315,2.72217 -1.827033,0.26273 -2.226268,-0.0204 -1.854891,-1.31528 0.373618,-1.30273 0.07601,-1.35084 -0.878935,-0.14208 -0.459858,0.58208 -1.615713,1.89177 -2.568566,2.91042 -0.952854,1.01864 -2.247518,2.53669 -2.877031,3.37343 -0.629514,0.83675 -1.3019,1.52136 -1.494192,1.52136 -0.192293,0 -0.913096,-0.74414 -1.601785,-1.65365 z m 3.829936,-2.97656 c 0.671721,-0.87313 2.018323,-2.44903 2.992449,-3.50201 1.961708,-2.1205 5.010519,-6.50115 6.293536,-9.04279 l 0.831877,-1.64794 -0.571667,-4.94217 c -0.314415,-2.7182 -0.661636,-5.03934 -0.771599,-5.1581 -0.20919,-0.22591 -2.156506,2.57004 -3.156633,4.5323 -0.319955,0.62775 -1.269176,1.78678 -2.10938,2.57562 -0.840204,0.78885 -2.351954,2.67884 -3.359444,4.19998 -1.007489,1.52115 -2.010393,2.76954 -2.228674,2.7742 -0.218282,0.005 -1.166211,-1.14878 -2.106509,-2.56322 -0.940299,-1.41444 -2.388172,-3.28608 -3.217496,-4.1592 -0.829324,-0.87313 -2.062413,-2.59895 -2.740198,-3.83517 -1.291593,-2.35574 -2.408048,-3.97004 -2.745692,-3.97004 -0.109798,0 -0.522815,2.37954 -0.917816,5.28787 l -0.718184,5.28786 0.966339,1.92203 c 1.252942,2.49208 3.949273,6.35247 6.011103,8.60623 0.897597,0.98115 2.101826,2.3789 2.676064,3.1061 0.574238,0.72721 1.39988,1.70772 1.834761,2.17892 0.758865,0.82224 0.811322,0.83821 1.303271,0.39687 0.28192,-0.25291 1.062171,-1.17422 1.733892,-2.04734 z M 5.87623,282.82125 c 0.311238,-0.81332 0.565887,-1.60983 0.565887,-1.77003 0,-0.40165 -2.130499,-3.89497 -2.375453,-3.89497 -0.328969,0 -0.87144,3.05966 -0.662333,3.73571 0.616045,1.9917 1.266387,3.40804 1.564868,3.40804 0.18763,0 0.595794,-0.66544 0.907031,-1.47875 z m 23.9848,-0.64652 c 0.68131,-1.78297 0.69578,-1.92307 0.346469,-3.35429 l -0.364535,-1.49361 -1.139235,1.88549 c -0.842989,1.39519 -1.09088,2.03784 -0.953288,2.47135 0.405796,1.27856 0.935913,2.35175 1.161679,2.35175 0.130844,0 0.557853,-0.83731 0.94891,-1.86069 z m -10.78328,-8.03665 c 0.825516,-1.17766 2.624482,-3.56995 3.997703,-5.3162 1.373222,-1.74625 2.621408,-3.33471 2.773748,-3.52989 0.380943,-0.4881 0.315249,-1.12923 -1.016502,-9.92028 -1.643552,-10.84929 -2.426936,-15.52126 -2.637949,-15.73227 -0.100052,-0.10005 -0.798059,0.50014 -1.551127,1.33376 -1.051946,1.16447 -1.614448,1.5671 -2.427548,1.73761 -1.758853,0.36883 -2.744064,-0.0487 -4.41491,-1.87101 -0.827471,-0.90249 -1.59337,-1.552 -1.701998,-1.44338 -0.262553,0.26256 -1.656899,8.03564 -3.157232,17.60068 l -1.216323,7.7544 0.727872,0.97685 c 0.400329,0.53727 1.759904,2.28655 3.021277,3.88728 1.261373,1.60073 2.979489,3.8967 3.818035,5.10215 1.771944,2.54727 1.571498,2.57797 3.784954,-0.5797 z M 4.728376,267.30052 c 0.286827,-0.77925 5.682491,-28.66811 5.682491,-29.3714 0,-0.87336 -0.776711,-2.36223 -1.164832,-2.23285 -0.139698,0.0466 -0.875068,3.05403 -1.634156,6.68326 -0.759088,3.62923 -2.029745,9.09891 -2.823682,12.15485 -2.411328,9.28142 -2.356364,8.92857 -1.663114,10.67667 0.3259,0.82179 0.666038,1.70252 0.755861,1.95718 0.189565,0.53744 0.67066,0.61255 0.847432,0.13229 z m 25.863721,-1.93307 c 0.626946,-1.92209 0.531511,-2.59382 -1.57458,-11.08295 -1.13724,-4.58394 -3.789984,-16.81508 -3.789984,-17.47467 0,-0.34196 -0.538986,-0.0817 -0.785773,0.37943 -0.298204,0.5572 -0.335832,0.31927 2.763951,17.47741 2.27974,12.61898 2.250879,12.48094 2.586112,12.36919 0.158019,-0.0527 0.518144,-0.80346 0.800274,-1.66841 z M 19.17737,239.38698 c 0.95747,-0.98226 2.415647,-2.81552 3.240394,-4.07391 0.824748,-1.25838 1.664951,-2.42525 1.867118,-2.59303 0.608027,-0.50462 2.457179,-5.01346 3.081876,-7.51463 0.640058,-2.56269 0.541607,-2.89486 -0.816309,-2.75416 -0.560646,0.0581 -0.790182,0.39023 -1.506057,2.17925 -1.316805,3.29078 -4.643944,7.0716 -6.535288,7.42641 -1.783216,0.33454 -3.197575,-0.0716 -4.579805,-1.31505 -2.140942,-1.92601 -3.549029,-3.91931 -4.436165,-6.27986 -0.801005,-2.13138 -0.856004,-2.20391 -1.609452,-2.12268 -0.429059,0.0463 -0.893679,0.19555 -1.032488,0.33175 -0.585288,0.57432 1.978244,9.58929 3.413992,12.00572 1.016437,1.71071 6.069527,6.46214 6.899651,6.48775 0.149424,0.005 1.055064,-0.79529 2.012533,-1.77756 z"
       style="fill:#b3c7d8;stroke-width:0.26458332" />
    <path
       inkscape:connector-curvature="0"
       id="path2441"
       d="m 15.528811,292.70052 c -0.556897,-0.76398 -1.672456,-2.10344 -2.479019,-2.97656 -0.806564,-0.87313 -1.98271,-2.27211 -2.613658,-3.10885 -0.630948,-0.83675 -1.260503,-1.52136 -1.399011,-1.52136 -0.150216,0 -0.180081,0.57429 -0.07401,1.42322 0.103405,0.82763 0.07181,1.48874 -0.07549,1.57978 -0.625625,0.38666 -3.385069,-0.38456 -5.114231,-1.42933 -0.99016,-0.59826 -1.912943,-1.22685 -2.050628,-1.39686 -0.246976,-0.30495 -0.401924,-5.32417 -1.259363,-40.79437 -0.549231,-22.7204 -0.719283,-21.52402 3.59006,-25.25727 l 1.543133,-1.33684 5.758354,-0.81903 5.758355,-0.81903 5.446178,0.70891 c 2.995398,0.38989 5.815952,0.82324 6.2679,0.96299 0.465744,0.14402 1.688412,1.1447 2.822356,2.30993 1.592423,1.63637 2.036265,2.26909 2.17525,3.10094 0.09604,0.5748 0.284247,1.38957 0.418243,1.81061 0.220811,0.69382 -0.246647,16.94804 -1.069904,37.20219 -0.138998,3.41973 -0.389466,9.90864 -0.556596,14.41979 -0.167126,4.51114 -0.421362,8.34729 -0.564964,8.52477 -0.653743,0.80796 -4.121126,2.5237 -5.501315,2.72217 -1.866805,0.26845 -2.219212,-0.005 -1.828351,-1.42103 0.404887,-1.46638 0.05665,-1.52505 -1.043312,-0.17579 -0.530637,0.6509 -1.811675,2.09699 -2.846751,3.21353 -1.035075,1.11654 -2.275649,2.57828 -2.756831,3.24831 -0.481181,0.67004 -1.023145,1.21824 -1.204364,1.21824 -0.181219,0 -0.785132,-0.62507 -1.342029,-1.38906 z m 3.453312,-2.47288 c 0.857889,-1.09387 2.355073,-2.86441 3.327075,-3.93455 2.113349,-2.3267 5.372184,-7.04938 6.278548,-9.09883 l 0.651748,-1.47372 -0.581419,-5.03683 c -0.319783,-2.77026 -0.671364,-5.203 -0.781293,-5.40609 -0.141785,-0.26195 -0.583227,0.19939 -1.518998,1.5875 -0.72552,1.07621 -1.409003,2.24131 -1.518851,2.58908 -0.109848,0.34779 -1.118036,1.59794 -2.240419,2.77813 -1.122383,1.18019 -2.797762,3.24978 -3.723065,4.59908 -0.925303,1.34931 -1.805905,2.41211 -1.956893,2.36178 -0.150988,-0.0503 -1.078146,-1.27337 -2.06035,-2.71787 -0.982205,-1.4445 -2.414433,-3.30705 -3.182729,-4.13901 -0.768296,-0.83195 -1.992215,-2.56979 -2.719819,-3.86186 -1.579042,-2.80403 -2.444451,-3.93632 -2.751879,-3.60051 -0.122739,0.13408 -0.547143,2.68455 -0.943121,5.66773 l -0.71996,5.42396 0.5543,1.32291 0.554299,1.32292 -0.605717,-0.7276 c -0.333144,-0.40019 -0.733803,-0.72761 -0.890353,-0.72761 -0.393647,0 -0.987742,2.96352 -0.748896,3.73571 0.613234,1.98261 1.265624,3.40804 1.559787,3.40804 0.184835,0 0.663052,-0.83344 1.062704,-1.85208 0.399652,-1.01865 0.774799,-1.85209 0.833659,-1.85209 0.05886,0 0.78376,0.92274 1.610888,2.05053 0.827127,1.12778 2.186347,2.78742 3.020488,3.68807 0.834142,0.90065 2.199876,2.50799 3.034966,3.57187 1.731825,2.20629 2.16146,2.61011 2.59049,2.43482 0.167756,-0.0685 1.006921,-1.0196 1.86481,-2.11348 z m 10.872996,-8.03744 c 0.659746,-1.72654 0.684054,-1.93927 0.377904,-3.3073 -0.179959,-0.80413 -0.397547,-1.46102 -0.483531,-1.45975 -0.08598,10e-4 -0.617284,0.71774 -1.180664,1.59215 -0.774453,1.20202 -0.988403,1.7662 -0.877059,2.3128 0.222057,1.09008 0.951042,2.70732 1.220351,2.70732 0.130844,0 0.555194,-0.83035 0.942999,-1.84522 z m -10.827438,-7.61364 c 1.001097,-1.41882 3.043728,-4.14795 4.539181,-6.06472 1.679018,-2.15205 2.718427,-3.72064 2.717495,-4.10104 -0.002,-0.80897 -1.314589,-9.73713 -2.687057,-18.27694 -0.765862,-4.76538 -1.196156,-6.81302 -1.431691,-6.81302 -0.185208,0 -0.895422,0.65394 -1.578253,1.4532 -2.234815,2.61588 -4.373943,2.56174 -6.750677,-0.17085 -0.740017,-0.85082 -1.515903,-1.54694 -1.724191,-1.54694 -0.208287,0 -0.378705,0.057 -0.378705,0.12676 0,0.0697 -0.471073,2.71886 -1.04683,5.88698 -0.575756,3.16812 -1.535963,8.89042 -2.133794,12.71621 l -1.086965,6.95599 1.346806,1.81675 c 0.740743,0.9992 2.147435,2.82687 3.125982,4.06147 0.978547,1.23461 2.469818,3.21024 3.313936,4.39029 0.844119,1.18006 1.629222,2.14555 1.744674,2.14555 0.115452,0 1.028993,-1.16086 2.030089,-2.57969 z M 7.012676,256.10014 c 1.259693,-6.24544 2.614515,-12.92311 3.010717,-14.83927 0.396202,-1.91616 0.64582,-3.76163 0.554707,-4.10105 -0.213601,-0.7957 -1.137091,-1.9844 -1.364779,-1.75672 -0.09647,0.0965 -0.807002,3.19032 -1.578956,6.87522 -0.771953,3.68489 -2.052933,9.20012 -2.846621,12.25606 -2.411108,9.28349 -2.355858,8.92871 -1.662661,10.67667 0.3259,0.82179 0.669837,1.71242 0.764304,1.97918 0.481932,1.36092 0.940021,-0.26565 3.123289,-11.09009 z m 23.579421,9.26731 c 0.632418,-1.93886 0.562044,-2.41347 -1.802447,-12.15599 -0.918261,-3.78354 -2.107618,-9.08182 -2.643021,-11.77396 -0.535402,-2.69213 -1.036002,-4.99738 -1.112444,-5.12277 -0.07644,-0.12539 -0.350462,0.11273 -0.608932,0.52916 -0.459016,0.73954 -0.445775,0.88024 0.569246,6.04882 0.571556,2.91042 1.751189,9.22073 2.621406,14.02292 1.954781,10.7872 1.835632,10.23366 2.178193,10.11948 0.156768,-0.0523 0.515869,-0.80271 0.797999,-1.66766 z m -11.49203,-25.53918 c 0.910135,-0.88508 2.374161,-2.69558 3.253392,-4.02332 0.87923,-1.32775 1.820581,-2.69629 2.091891,-3.04121 0.666086,-0.84679 2.461813,-5.55544 3.0347,-7.95743 0.512759,-2.14988 0.378341,-2.49065 -0.928974,-2.35506 -0.552259,0.0573 -0.789037,0.38419 -1.441149,1.98972 -0.553766,1.3634 -1.322116,2.54746 -2.646459,4.07831 -2.641313,3.05318 -2.973854,3.26093 -5.219691,3.26093 h -1.859534 l -2.563688,-2.65667 c -2.296968,-2.38028 -2.646787,-2.87576 -3.362418,-4.7625 -0.767693,-2.024 -0.828959,-2.10256 -1.576646,-2.02172 -0.427854,0.0463 -0.891488,0.19555 -1.030297,0.33175 -0.475548,0.46664 1.331989,7.44081 2.978031,11.49039 0.675311,1.6614 6.306596,7.27604 7.297606,7.27604 0.175145,0 1.063102,-0.72415 1.973236,-1.60923 z"
       style="fill:#96b2cc;stroke-width:0.26458332" />
    <path
       inkscape:connector-curvature="0"
       id="path2439"
       d="m 15.305658,292.03481 c -0.727604,-0.97735 -2.037292,-2.56032 -2.910416,-3.51771 -0.873125,-0.95738 -2.038211,-2.26812 -2.58908,-2.91275 l -1.001579,-1.17206 0.159867,1.75909 c 0.08953,0.98509 0.05207,1.8257 -0.08514,1.9105 -0.618216,0.38208 -3.386731,-0.39571 -5.105925,-1.43446 -0.99016,-0.59826 -1.912943,-1.22685 -2.050628,-1.39686 -0.246976,-0.30495 -0.401924,-5.32417 -1.259363,-40.79437 -0.549231,-22.7204 -0.719283,-21.52402 3.59006,-25.25727 l 1.543133,-1.33684 5.758354,-0.81903 5.758355,-0.81903 5.446178,0.70891 c 2.995398,0.38989 5.815952,0.82324 6.2679,0.96299 0.465744,0.14402 1.688412,1.1447 2.822356,2.30993 1.592423,1.63637 2.036265,2.26909 2.17525,3.10094 0.09604,0.5748 0.284247,1.38957 0.418243,1.81061 0.220811,0.69382 -0.246647,16.94804 -1.069904,37.20219 -0.138998,3.41973 -0.389466,9.90864 -0.556596,14.41979 -0.167126,4.51114 -0.421362,8.34729 -0.564964,8.52477 -0.653743,0.80796 -4.121126,2.5237 -5.501315,2.72217 -1.862845,0.26788 -2.218917,-0.007 -1.831099,-1.41108 0.522145,-1.89105 0.193912,-1.97188 -1.206319,-0.29707 -0.723633,0.86554 -2.151948,2.46856 -3.174034,3.56227 -1.022087,1.09371 -2.155995,2.43235 -2.519797,2.97475 -0.363802,0.54241 -0.780521,0.98404 -0.926042,0.98141 -0.145521,-0.003 -0.859896,-0.80443 -1.5875,-1.78179 z m 4.045063,-1.85499 c 0.976674,-1.18665 2.668739,-3.21143 3.760145,-4.49951 1.091406,-1.28807 2.375004,-2.90818 2.85244,-3.60025 0.477436,-0.69206 1.009349,-1.2112 1.182027,-1.15364 0.17268,0.0576 0.571873,0.74625 0.887095,1.53042 0.315225,0.78417 0.693449,1.46587 0.840502,1.51489 0.147055,0.049 0.588933,-0.75239 0.981953,-1.78092 0.664983,-1.74024 0.69205,-1.96609 0.389975,-3.25386 -0.453456,-1.93311 -0.507341,-1.97135 -1.353931,-0.96079 l -0.753867,0.89988 0.571746,-1.32291 0.571746,-1.32292 -0.602038,-5.28556 c -0.331121,-2.90706 -0.687017,-5.51528 -0.790876,-5.79604 -0.170723,-0.46151 -0.254329,-0.42402 -0.871469,0.39077 -0.375447,0.49568 -1.303838,1.91328 -2.063093,3.15021 -0.759254,1.23692 -2.173499,3.08239 -3.142768,4.10104 -0.969268,1.01864 -2.412614,2.83032 -3.207436,4.02595 -0.794822,1.19563 -1.518696,2.17789 -1.608608,2.18281 -0.08991,0.005 -0.921818,-1.15191 -1.848678,-2.57074 -0.92686,-1.41883 -2.355845,-3.29406 -3.175522,-4.16719 -1.26656,-1.34915 -4.494308,-6.55978 -3.359894,-5.42396 0.731639,0.73255 4.585674,5.66975 5.886298,7.54063 1.444657,2.07806 2.257274,3.0427 2.563175,3.0427 0.113594,0 1.0699,-1.22039 2.125123,-2.71197 1.055224,-1.49159 3.16597,-4.30808 4.690548,-6.25886 l 2.77196,-3.54688 -0.840784,-5.84583 c -1.817236,-12.63494 -3.060487,-19.79154 -3.465182,-19.94684 -0.250097,-0.096 -0.873613,0.39132 -1.739504,1.35945 -2.376112,2.65669 -4.310895,2.63263 -6.701576,-0.0833 -1.32765,-1.50829 -1.95556,-1.88559 -2.275768,-1.36748 -0.465869,0.75379 -4.493836,25.31044 -4.254089,25.93521 0.111677,0.29103 0.0068,0.26615 -0.389323,-0.0923 -0.298197,-0.26986 -0.624532,-0.4083 -0.72519,-0.30764 -0.100658,0.10066 -0.565421,2.93383 -1.032807,6.29594 -0.467385,3.36211 -0.962325,6.18613 -1.099865,6.2756 -0.391063,0.2544 -0.929797,2.87562 -0.743542,3.61772 0.403582,1.608 1.27688,3.55642 1.594015,3.55642 0.190083,0 0.612764,-0.71437 0.939291,-1.5875 0.326527,-0.87312 0.727997,-1.58493 0.892155,-1.58179 0.164159,0.003 0.77472,0.68189 1.356803,1.50834 0.582084,0.82646 1.891771,2.44981 2.910417,3.60746 1.018646,1.15765 2.542677,2.94944 3.386735,3.98176 1.815907,2.22092 2.25499,2.59089 2.747679,2.31517 0.202516,-0.11334 1.167308,-1.17696 2.143982,-2.36362 z M 7.002722,256.03678 c 1.254219,-6.28029 2.400561,-11.56879 2.547426,-11.75222 0.146866,-0.18344 0.536953,-1.79605 0.866859,-3.58359 0.488949,-2.64929 0.541594,-3.37789 0.284796,-3.9415 -0.220108,-0.48308 0.326805,-0.1017 1.815052,1.2657 2.825281,2.59587 4.200841,3.67692 4.678633,3.67692 0.655227,0 2.840374,-2.46054 4.867022,-5.48041 1.053423,-1.56968 2.131499,-3.13096 2.395723,-3.46951 0.657046,-0.84187 2.455161,-5.57001 3.021817,-7.94586 0.512267,-2.14781 0.377713,-2.49122 -0.922735,-2.35506 -0.542468,0.0568 -0.792176,0.39905 -1.457815,1.99804 -0.441772,1.06121 -0.931664,2.01371 -1.088648,2.11666 -0.156985,0.10295 -1.02638,1.05246 -1.931989,2.11003 -1.846286,2.15609 -2.509059,2.66662 -3.856253,2.97047 -1.855494,0.41848 -2.822665,-0.0985 -5.583601,-2.98483 -2.1638,-2.26203 -2.652214,-2.94008 -3.265365,-4.53315 -0.684965,-1.77965 -0.759696,-1.86906 -1.495531,-1.78915 -0.425996,0.0463 -0.886743,0.19418 -1.023884,0.32872 -0.322175,0.31606 0.540084,4.62778 1.329891,6.65011 0.323635,0.82867 0.80236,2.33715 1.063834,3.35216 0.446211,1.73214 0.448297,1.89959 0.03397,2.72665 -0.242788,0.48464 -0.931184,3.32195 -1.529769,6.30513 -0.598586,2.98317 -1.834767,8.34098 -2.747069,11.90625 -2.673245,10.44698 -2.5761,9.84744 -1.880006,11.60271 0.3259,0.82179 0.669837,1.71242 0.764304,1.97918 0.483663,1.3658 0.938721,-0.26443 3.113335,-11.15345 z m 23.589375,9.33067 c 0.632418,-1.93886 0.562044,-2.41347 -1.802447,-12.15599 -0.918261,-3.78354 -2.105898,-9.08182 -2.639195,-11.77396 -0.533298,-2.69213 -1.067101,-4.99681 -1.186229,-5.12151 -0.119128,-0.1247 -0.422976,0.0883 -0.67522,0.47323 -0.431641,0.65876 -0.432821,0.8122 -0.02006,2.60797 0.586676,2.55239 1.971919,9.81008 3.596165,18.84135 1.665917,9.26298 1.588524,8.91005 1.928985,8.79657 0.156768,-0.0523 0.515868,-0.80271 0.797999,-1.66766 z"
       style="fill:#a7a39a;stroke-width:0.26458332" />
    <path
       inkscape:connector-curvature="0"
       id="path2437"
       d="m 15.306666,292.03247 c -0.72705,-0.97864 -1.981738,-2.49372 -2.788196,-3.36684 -0.806457,-0.87313 -1.91621,-2.15305 -2.466117,-2.84427 -1.54513,-1.94221 -1.657584,-1.79646 -1.173847,1.52135 0.07041,0.48295 -0.04995,0.5216 -1.378056,0.44253 -1.046369,-0.0623 -1.907702,-0.33792 -3.065799,-0.98106 -2.983038,-1.65659 -2.662115,-0.24595 -3.007528,-13.2198 -0.166595,-6.2574 -0.412241,-14.8299 -0.545878,-19.05 C 0.747608,250.31427 0.494658,242.27755 0.319134,236.675 L 0,226.48854 0.588909,224.50417 c 0.770056,-2.59476 0.691437,-2.47492 2.985892,-4.55161 l 1.983575,-1.79531 4.212183,-0.65058 c 2.3167,-0.35782 4.908205,-0.77867 5.7589,-0.93523 1.066368,-0.19625 2.052399,-0.20205 3.175,-0.0187 0.895555,0.14629 3.563218,0.55434 5.92814,0.90678 l 4.299857,0.6408 1.785559,1.58463 c 2.457074,2.18058 2.534936,2.29457 3.201273,4.6869 l 0.589555,2.11667 -0.402251,7.8052 c -0.221237,4.29287 -0.585698,12.80584 -0.809911,18.91771 -0.448813,12.23424 -0.817483,21.66033 -1.089525,27.85683 -0.201237,4.5837 0.05214,4.09467 -3.010873,5.81114 -1.01481,0.56869 -1.895608,0.84226 -2.910417,0.90396 -1.328608,0.0808 -1.448496,0.0425 -1.378056,-0.44068 0.04243,-0.29104 0.137256,-1.06495 0.210715,-1.71979 l 0.133562,-1.19063 -1.40134,1.56547 c -0.770736,0.86101 -2.294308,2.53222 -3.385714,3.71382 -1.091406,1.18159 -2.282031,2.58968 -2.645833,3.12908 -0.363802,0.5394 -0.780521,0.97857 -0.926042,0.97594 -0.145521,-0.003 -0.859442,-0.80548 -1.586492,-1.78413 z m 4.044055,-1.85265 c 0.976674,-1.18665 2.668739,-3.21143 3.760145,-4.49951 1.091406,-1.28807 2.380142,-2.91547 2.863857,-3.61645 l 0.879481,-1.27449 0.348329,0.67141 c 0.191583,0.36927 0.494806,1.12939 0.673836,1.68917 0.650261,2.03318 1.135044,1.81796 2.238124,-0.9936 0.700195,-1.78469 0.722177,-1.96587 0.409686,-3.37684 -0.181616,-0.82003 -0.434436,-1.68927 -0.561825,-1.93165 -0.214881,-0.40885 -1.313725,-9.17003 -1.280305,-10.208 0.0082,-0.2551 0.157043,-0.0471 0.330729,0.46223 0.173688,0.50932 0.434859,0.88551 0.58038,0.83599 0.14552,-0.0495 0.6512,-1.02436 1.123735,-2.1663 l 0.85915,-2.07624 -0.684006,-3.12537 c -0.376203,-1.71896 -1.209617,-5.38756 -1.852028,-8.15246 -0.907013,-3.90373 -3.547893,-16.54493 -3.547893,-16.98285 0,-0.0455 -0.117569,-0.0828 -0.261264,-0.0828 -0.143696,0 -0.569079,0.48761 -0.945296,1.08358 l -0.684032,1.08358 0.57509,3.48048 c 0.316299,1.91427 1.326459,7.40955 2.244801,12.21174 1.845505,9.65052 2.145604,11.46809 1.84709,11.18711 -0.270618,-0.25473 -1.453504,1.268 -3.230583,4.15872 -0.805133,1.30969 -2.257237,3.21469 -3.226899,4.23334 -0.969661,1.01864 -2.413329,2.83032 -3.208151,4.02595 -0.794822,1.19563 -1.518696,2.17789 -1.608608,2.18281 -0.08991,0.005 -0.921818,-1.15191 -1.848678,-2.57074 -0.92686,-1.41883 -2.355845,-3.29406 -3.175522,-4.16719 -1.26656,-1.34915 -4.494308,-6.55978 -3.359894,-5.42396 0.731639,0.73255 4.585674,5.66975 5.886298,7.54063 1.444657,2.07806 2.257274,3.0427 2.563175,3.0427 0.113594,0 1.0699,-1.22039 2.125123,-2.71197 1.055224,-1.49159 3.16597,-4.30808 4.690548,-6.25886 l 2.77196,-3.54688 -0.840784,-5.84583 c -1.817236,-12.63494 -3.060487,-19.79154 -3.465182,-19.94684 -0.250097,-0.096 -0.873613,0.39132 -1.739504,1.35945 -2.376112,2.65669 -4.310895,2.63263 -6.701576,-0.0833 -1.32765,-1.50829 -1.95556,-1.88559 -2.275768,-1.36748 -0.469468,0.75961 -4.492473,25.30767 -4.252768,25.95004 0.0848,0.22724 -0.22618,0.0362 -0.691058,-0.42445 l -0.845231,-0.83761 0.601346,-3.05996 c 0.353917,-1.80092 0.708129,-2.99397 0.860869,-2.89957 0.156388,0.0967 0.190687,-0.0565 0.08631,-0.38536 -0.09527,-0.30016 -0.04998,-0.76155 0.100636,-1.02532 0.150618,-0.26376 0.696008,-2.97988 1.211978,-6.03582 0.51597,-3.05594 1.247368,-7.16183 1.625328,-9.12421 0.537682,-2.79165 0.626213,-3.72953 0.406898,-4.31056 -0.227775,-0.60344 0.113085,-0.38106 1.818935,1.18671 2.792828,2.56676 4.171203,3.6491 4.647165,3.6491 0.572616,0 5.843795,-5.19574 6.846486,-6.74851 1.617624,-2.50504 4.096596,-9.68804 4.096596,-11.87018 0,-0.50811 -0.198458,-0.72035 -0.885661,-0.94715 -0.487111,-0.16076 -1.069283,-0.22183 -1.293712,-0.1357 -0.224429,0.0861 -0.730931,1.04185 -1.125558,2.12385 -0.394628,1.08201 -0.831515,1.96728 -0.97086,1.96728 -0.139345,0 -0.189234,0.10375 -0.110864,0.23055 0.172832,0.27965 -3.036946,4.09181 -3.94768,4.68854 -0.983468,0.6444 -2.416841,0.88473 -3.518798,0.59001 -0.646088,-0.1728 -1.589624,-0.86183 -2.773806,-2.0256 -2.287005,-2.24758 -2.972368,-3.2484 -3.865912,-5.64529 l -0.72294,-1.93925 -1.041583,0.0647 c -1.582017,0.0983 -1.714089,0.47363 -1.144213,3.25203 0.269034,1.31166 0.833958,3.36417 1.255388,4.56114 0.421429,1.19696 0.850943,2.68231 0.954474,3.30078 0.103531,0.61846 0.296836,1.12447 0.429566,1.12447 0.132729,0 0.241327,0.17486 0.241327,0.38858 0,0.23669 -0.155123,0.32904 -0.396875,0.23627 -0.218282,-0.0838 -0.396875,-0.0885 -0.396875,-0.0105 0,0.65909 -2.893582,13.89033 -3.742449,17.11279 -0.594169,2.25557 -1.171778,4.69635 -1.283576,5.42396 -0.111798,0.7276 -0.4536,2.27541 -0.75956,3.43958 -0.723011,2.75103 -0.710923,3.01599 0.229335,5.02708 0.436562,0.93375 0.79375,1.82175 0.79375,1.97334 0,0.52061 0.810907,0.27536 1.057067,-0.31969 0.282692,-0.68337 0.260067,-0.463 -0.522912,5.09323 -0.27684,1.96453 -0.768502,4.49897 -1.092582,5.63209 l -0.589237,2.06023 0.608614,1.51165 c 1.190009,2.9557 1.852418,3.42676 2.404736,1.71009 0.175574,-0.54571 0.505525,-1.3152 0.733226,-1.70998 l 0.414001,-0.71779 1.291016,1.77613 c 0.710059,0.97686 2.037203,2.60955 2.949209,3.6282 0.912006,1.01865 2.28754,2.62599 3.056743,3.57187 1.821706,2.24015 2.35,2.69458 2.824094,2.42927 0.209059,-0.117 1.179205,-1.18362 2.155879,-2.37028 z m 9.276366,-12.43133 c 0.587087,-1.35887 0.834223,-1.64597 0.832464,-0.96707 -7.94e-4,0.27892 -0.297932,0.86431 -0.660461,1.30087 l -0.659148,0.79375 z"
       style="fill:#76a0c5;stroke-width:0.26458332" />
    <path
       inkscape:connector-curvature="0"
       id="path2435"
       d="M 6.926151,287.81713 C 6.392005,287.75833 5.022787,287.15122 3.883443,286.4681 L 1.811909,285.22604 1.636344,280.33125 C 1.539784,277.63912 1.327554,270.31677 1.164721,264.05938 1.001888,257.80198 0.695356,247.91979 0.483537,242.09896 -0.037162,227.79 -0.026734,226.58038 0.636556,224.35029 c 0.721735,-2.4266 0.662556,-2.33802 2.938245,-4.39773 l 1.983575,-1.79531 4.212183,-0.65058 c 2.3167,-0.35782 4.908205,-0.77867 5.7589,-0.93523 1.066368,-0.19625 2.052399,-0.20205 3.175,-0.0187 0.895555,0.14629 3.563218,0.55434 5.92814,0.90678 l 4.299857,0.6408 1.785559,1.58463 c 2.457074,2.18058 2.534936,2.29457 3.201273,4.6869 l 0.589555,2.11667 -0.402251,7.8052 c -0.221237,4.29287 -0.585698,12.80584 -0.809911,18.91771 -0.448813,12.23424 -0.817483,21.66033 -1.089525,27.85683 -0.201237,4.5837 0.05214,4.09467 -3.010873,5.81114 -1.01481,0.56869 -1.895608,0.84226 -2.910417,0.90396 -1.61116,0.098 -1.506585,0.27973 -1.144233,-1.98882 0.106681,-0.66788 0.05287,-1.08688 -0.156183,-1.21608 -0.227182,-0.14041 -4e-5,-0.70574 0.789504,-1.96498 1.092784,-1.74288 1.113162,-1.75877 1.442176,-1.1246 0.183553,0.3538 0.480209,1.10126 0.659239,1.66104 0.650261,2.03318 1.135044,1.81796 2.238124,-0.9936 0.700195,-1.78469 0.722177,-1.96587 0.409686,-3.37684 -0.181616,-0.82003 -0.434436,-1.68927 -0.561825,-1.93165 -0.214881,-0.40885 -1.313725,-9.17003 -1.280305,-10.208 0.0082,-0.2551 0.157043,-0.0653 0.330729,0.42175 0.173688,0.48706 0.418089,0.90378 0.543116,0.92604 0.125026,0.0222 0.630705,-0.93435 1.123735,-2.12581 l 0.896414,-2.1663 -0.684006,-3.12537 c -0.376203,-1.71896 -1.209617,-5.38756 -1.852028,-8.15246 -0.907013,-3.90373 -3.547893,-16.54493 -3.547893,-16.98284 0,-0.0455 -0.117569,-0.0828 -0.261264,-0.0828 -0.143696,0 -0.569079,0.48761 -0.945296,1.08357 l -0.684032,1.08358 0.57509,3.48049 c 0.316299,1.91426 1.326459,7.40954 2.244801,12.21173 1.852252,9.6858 2.145919,11.46853 1.842002,11.18202 -0.113805,-0.10729 -0.522586,0.13525 -0.908404,0.53897 -0.645123,0.67506 -1.175092,1.44364 -3.337822,4.84061 -0.840527,1.3202 -3.099901,3.48968 -2.535772,2.43488 0.171396,-0.32047 1.357878,-1.98735 2.636626,-3.70416 1.278747,-1.71682 2.403238,-3.25012 2.498868,-3.40733 0.243133,-0.39971 -3.539535,-25.45223 -3.941132,-26.10202 -0.242554,-0.39246 -0.559406,-0.1881 -2.146951,1.38474 -0.932645,0.92401 -1.833738,1.5875 -2.155987,1.5875 -0.304504,0 -0.553643,-0.0778 -0.553643,-0.17292 0,-0.0951 1.29525,-1.49409 2.878333,-3.10885 1.583083,-1.61477 3.178641,-3.42092 3.545684,-4.01367 0.934899,-1.50981 2.945778,-6.7535 3.462355,-9.02866 0.640033,-2.8189 0.595932,-3.16005 -0.453284,-3.50632 -0.487111,-0.16076 -1.069283,-0.22183 -1.293712,-0.13571 -0.224429,0.0861 -0.730931,1.04186 -1.125558,2.12386 -0.394628,1.082 -0.844332,1.96727 -0.999342,1.96727 -0.155011,0 -0.207701,0.0741 -0.117089,0.16475 0.18954,0.18954 -4.374827,4.86233 -4.749509,4.86233 -0.136329,0 -0.201632,-0.39607 -0.145118,-0.88015 0.158444,-1.35719 -0.778175,-1.84822 -3.284054,-1.72168 -1.073622,0.0542 -1.95204,0.0617 -1.95204,0.0166 0,-0.0451 0.261844,-0.43616 0.581874,-0.86903 0.532011,-0.71958 0.545801,-0.82309 0.160923,-1.20797 -0.359867,-0.35987 -0.624179,-0.37737 -1.821482,-0.12059 -1.737176,0.37256 -1.866804,0.26429 -2.85374,-2.38342 l -0.731283,-1.96185 -1.041583,0.0647 c -1.587885,0.0986 -1.714794,0.46969 -1.132611,3.31166 0.275416,1.34446 0.746355,3.09932 1.046532,3.89968 0.839731,2.23898 1.570143,5.38525 1.29034,5.55818 -0.135532,0.0838 -0.84879,3.06439 -1.585017,6.62362 -0.736227,3.55923 -1.824732,8.31679 -2.418901,10.57237 -0.594169,2.25557 -1.171778,4.69635 -1.283576,5.42396 -0.111798,0.7276 -0.4536,2.27541 -0.75956,3.43958 -0.723011,2.75103 -0.710923,3.01599 0.229335,5.02708 0.436562,0.93375 0.79375,1.82175 0.79375,1.97334 0,0.52061 0.810907,0.27536 1.057067,-0.31969 0.282692,-0.68337 0.260067,-0.463 -0.522912,5.09323 -0.27684,1.96453 -0.768502,4.49897 -1.092582,5.63209 l -0.589237,2.06023 0.608614,1.51165 c 1.251037,3.10728 1.840592,3.43518 2.516661,1.39972 0.550499,-1.65739 1.046702,-2.11922 1.455756,-1.35489 0.162399,0.30344 0.211837,0.68671 0.109863,0.85171 -0.110661,0.17905 -0.06761,0.22719 0.106781,0.11941 0.457133,-0.28252 0.912052,0.84863 0.990513,2.46291 0.03936,0.8098 0.112672,1.71044 0.162915,2.00141 0.09995,0.57886 -0.238682,0.66178 -1.938155,0.47455 z m 22.29102,-11.0798 c 0.0127,-0.30823 0.07539,-0.37092 0.159851,-0.15985 0.07643,0.19099 0.06703,0.41919 -0.02088,0.50711 -0.08792,0.0879 -0.150452,-0.0683 -0.138964,-0.34726 z M 6.024747,263.83679 c -0.221969,-0.57844 0.971463,-6.27553 1.275271,-6.08777 0.155565,0.0961 0.185041,-0.0682 0.07463,-0.41608 -0.100373,-0.31625 -0.06754,-0.71811 0.07297,-0.89303 0.140506,-0.17492 0.652093,-2.68231 1.13686,-5.57199 0.484767,-2.88967 0.924741,-5.12392 0.97772,-4.96498 0.143683,0.43105 -2.658012,16.69099 -2.854992,16.56925 -0.09313,-0.0576 -0.119903,0.23214 -0.05949,0.64379 0.117443,0.80019 -0.37421,1.36907 -0.622968,0.72081 z"
       style="fill:#6d91af;stroke-width:0.26458332" />
    <path
       inkscape:connector-curvature="0"
       id="path2433"
       d="M 6.926151,287.81713 C 6.392005,287.75833 5.022787,287.15122 3.883443,286.4681 L 1.811909,285.22604 1.636344,280.33125 C 1.539784,277.63912 1.327554,270.31677 1.164721,264.05938 1.001888,257.80198 0.695356,247.91979 0.483537,242.09896 -0.037162,227.79 -0.026734,226.58038 0.636556,224.35029 c 0.721735,-2.4266 0.662556,-2.33802 2.938245,-4.39773 l 1.983575,-1.79531 4.212183,-0.65058 c 2.3167,-0.35782 4.908205,-0.77867 5.7589,-0.93523 1.066368,-0.19625 2.052399,-0.20205 3.175,-0.0187 0.895555,0.14629 3.563218,0.55434 5.92814,0.90678 l 4.299857,0.6408 1.785559,1.58463 c 2.457074,2.18058 2.534936,2.29457 3.201273,4.6869 l 0.589555,2.11667 -0.402251,7.8052 c -0.221237,4.29287 -0.585698,12.80584 -0.809911,18.91771 -0.448813,12.23424 -0.817483,21.66033 -1.089525,27.85683 -0.201237,4.5837 0.05214,4.09467 -3.010873,5.81114 -1.01481,0.56869 -1.895608,0.84226 -2.910417,0.90396 -1.62013,0.0985 -1.508026,0.31573 -1.115013,-2.16047 0.213292,-1.34386 1.595068,-4.02922 2.003256,-3.89316 0.147167,0.0491 0.454001,0.63901 0.681853,1.31101 0.227853,0.67199 0.5007,1.30673 0.606321,1.41051 0.361678,0.3554 0.912644,-0.4099 1.65221,-2.29493 0.700195,-1.78469 0.722177,-1.96587 0.409686,-3.37684 -0.181616,-0.82003 -0.434436,-1.68927 -0.561825,-1.93165 -0.214881,-0.40885 -1.313725,-9.17003 -1.280305,-10.208 0.0082,-0.2551 0.157043,-0.0653 0.330729,0.42175 0.173688,0.48706 0.418089,0.90378 0.543116,0.92604 0.125026,0.0222 0.630705,-0.93435 1.123735,-2.12581 l 0.896414,-2.1663 -0.685229,-3.12537 c -0.376877,-1.71895 -1.261639,-5.62569 -1.966139,-8.68162 -0.704501,-3.05594 -1.653046,-7.46125 -2.107872,-9.78959 -0.454829,-2.32833 -1.067528,-5.20037 -1.361554,-6.3823 l -0.534592,-2.14896 1.176269,-3.01041 c 1.159866,-2.96843 2.041023,-6.19508 2.041023,-7.47389 0,-0.50812 -0.198458,-0.72035 -0.885661,-0.94715 -0.487111,-0.16076 -1.069283,-0.22183 -1.293712,-0.13571 -0.224429,0.0861 -0.730931,1.04186 -1.125558,2.12386 -0.498807,1.36764 -0.850453,1.96586 -1.153683,1.96265 -0.239897,-0.002 -1.626802,-0.35765 -3.08201,-0.78913 -1.455209,-0.43148 -2.982421,-0.78659 -3.393805,-0.78913 -0.411385,-0.002 -2.045341,0.37557 -3.631014,0.84024 -1.585674,0.46466 -2.954927,0.77297 -3.042785,0.68511 -0.08786,-0.0879 -0.485501,-1.03359 -0.883652,-2.10163 l -0.723911,-1.94188 -1.041583,0.0647 c -1.582017,0.0983 -1.714089,0.47363 -1.144213,3.25203 0.269034,1.31166 0.858653,3.42371 1.310266,4.69343 0.451612,1.26973 0.836536,2.90391 0.855388,3.63151 0.0385,1.48613 -2.1763,12.14459 -3.821098,18.38854 -0.594169,2.25558 -1.171778,4.69636 -1.283576,5.42396 -0.111798,0.7276 -0.4536,2.27542 -0.75956,3.43959 -0.723011,2.75103 -0.710923,3.01599 0.229335,5.02708 0.436562,0.93375 0.79375,1.82175 0.79375,1.97334 0,0.52061 0.810907,0.27536 1.057067,-0.31969 0.282692,-0.68337 0.260067,-0.463 -0.522912,5.09323 -0.27684,1.96453 -0.768502,4.49897 -1.092582,5.63209 l -0.589237,2.06023 0.608614,1.51165 c 1.254161,3.11504 1.840235,3.43625 2.522391,1.38247 0.241103,-0.72589 0.536999,-1.38076 0.657548,-1.45526 0.120548,-0.0745 0.551482,0.43011 0.957631,1.12136 0.641035,1.09103 0.883829,1.97061 1.223299,4.4317 0.07962,0.5772 -0.265332,0.66086 -1.956535,0.47455 z M 27.939414,263.9079 c -0.424942,-1.02629 -2.720222,-15.51572 -2.323124,-14.66519 0.06794,0.14552 0.726712,3.47369 1.463934,7.39594 1.27149,6.76471 1.519661,8.86439 0.85919,7.26925 z M 5.920789,263.6625 c -0.0137,-0.6588 1.118183,-6.10592 1.242867,-5.98124 0.173066,0.17307 -0.709023,5.47966 -0.990972,5.96163 -0.208329,0.35612 -0.244839,0.35896 -0.251895,0.0196 z m 1.335966,-6.76892 c 0.01269,-0.30823 0.07539,-0.37092 0.159852,-0.15985 0.07643,0.19099 0.06703,0.41919 -0.02089,0.50711 -0.08792,0.0879 -0.150452,-0.0683 -0.138964,-0.34726 z m 17.991666,-8.73125 c 0.01269,-0.30823 0.07539,-0.37092 0.159852,-0.15985 0.07643,0.19099 0.06703,0.41919 -0.02089,0.50711 -0.08792,0.0879 -0.150453,-0.0684 -0.138964,-0.34726 z"
       style="fill:#d1ac2b;stroke-width:0.26458332" />
    <path
       inkscape:connector-curvature="0"
       id="path2431"
       d="M 6.926151,287.81713 C 6.392005,287.75833 5.022787,287.15122 3.883443,286.4681 L 1.811909,285.22604 1.636344,280.33125 C 1.539784,277.63912 1.327554,270.31677 1.164721,264.05938 1.001888,257.80198 0.695356,247.91979 0.483537,242.09896 -0.037162,227.79 -0.026734,226.58038 0.636556,224.35029 c 0.721735,-2.4266 0.662556,-2.33802 2.938245,-4.39773 l 1.983575,-1.79531 4.212183,-0.65058 c 2.3167,-0.35782 4.908205,-0.77867 5.7589,-0.93523 1.066368,-0.19625 2.052399,-0.20205 3.175,-0.0187 0.895555,0.14629 3.563218,0.55434 5.92814,0.90678 l 4.299857,0.6408 1.785559,1.58463 c 2.457074,2.18058 2.534936,2.29457 3.201273,4.6869 l 0.589555,2.11667 -0.402251,7.8052 c -0.221237,4.29287 -0.585698,12.80584 -0.809911,18.91771 -0.448813,12.23424 -0.817483,21.66033 -1.089525,27.85683 -0.201237,4.5837 0.05214,4.09467 -3.010873,5.81114 -1.01481,0.56869 -1.895608,0.84226 -2.910417,0.90396 -1.62013,0.0985 -1.508026,0.31573 -1.115013,-2.16047 0.213292,-1.34386 1.595068,-4.02922 2.003256,-3.89316 0.347112,0.11571 1.188702,2.60114 1.028102,3.03626 -0.08394,0.22742 0.03371,0.27782 0.3693,0.15822 0.869098,-0.30972 1.418556,-0.95232 1.417212,-1.65743 -7.94e-4,-0.37763 0.19618,-1.23765 0.437554,-1.91115 0.403665,-1.12633 0.405329,-1.34914 0.02074,-2.77812 -0.791919,-2.94244 -0.783019,-2.89849 -0.508278,-2.50987 0.252137,0.35666 0.323249,-0.46208 0.698262,-8.03954 0.06482,-1.30969 0.302638,-2.82316 0.528492,-3.36327 0.363913,-0.87027 0.3674,-1.16739 0.03064,-2.61096 -0.209002,-0.89592 -0.326004,-2.18042 -0.259998,-2.85444 0.123166,-1.25776 0.425492,-9.23439 0.923904,-24.37654 0.268163,-8.14694 0.256574,-8.68902 -0.220441,-10.3123 -0.493207,-1.67837 -0.540821,-1.73609 -2.333291,-2.82825 -1.761302,-1.07316 -2.006439,-1.14112 -6.547465,-1.81518 -2.59471,-0.38515 -4.76469,-0.65324 -4.822177,-0.59576 -0.05749,0.0575 1.947591,0.47253 4.45573,0.92232 4.013125,0.71968 4.756735,0.93484 6.197923,1.79335 0.900718,0.53655 1.792491,1.16192 1.981716,1.3897 0.262591,0.3161 0.344045,2.01762 0.344045,7.18691 0,7.8439 -0.334351,22.12447 -0.576712,24.63213 l -0.166214,1.71979 -0.880036,-3.57188 c -0.484018,-1.96453 -1.476861,-6.4889 -2.206318,-10.05416 -0.729456,-3.56526 -1.517633,-7.20511 -1.751506,-8.08855 l -0.425222,-1.60626 1.181565,-3.02395 c 1.164486,-2.98026 2.046313,-6.20684 2.046313,-7.48743 0,-0.50812 -0.198458,-0.72036 -0.885661,-0.94715 -0.487111,-0.16077 -1.069283,-0.22183 -1.293712,-0.13571 -0.224429,0.0861 -0.730931,1.04186 -1.125558,2.12386 -0.498807,1.36764 -0.850453,1.96586 -1.153683,1.96265 -0.239897,-0.002 -1.626802,-0.35765 -3.08201,-0.78913 -1.455209,-0.43148 -2.982421,-0.78659 -3.393805,-0.78913 -0.411385,-0.002 -2.045341,0.37556 -3.631014,0.84023 -1.585674,0.46467 -2.954927,0.77297 -3.042785,0.68512 -0.08786,-0.0879 -0.485501,-1.03359 -0.883652,-2.10163 l -0.723911,-1.94188 -1.041583,0.0647 c -1.582017,0.0983 -1.714089,0.47363 -1.144213,3.25203 0.269034,1.31166 0.858653,3.4237 1.310266,4.69343 0.451612,1.26973 0.836536,2.9039 0.855388,3.63151 0.03883,1.49859 -2.181324,12.1564 -3.858114,18.52083 l -1.115327,4.23334 -0.20238,-5.95313 c -0.317696,-9.34518 -0.138471,-26.55052 0.281842,-27.05651 0.189225,-0.2278 1.082193,-0.85553 1.984375,-1.39496 1.398688,-0.83631 2.195755,-1.08004 5.41071,-1.65453 2.073709,-0.37055 3.721748,-0.72236 3.662308,-0.7818 -0.05944,-0.0594 -1.909921,0.15872 -4.112182,0.4848 -3.769166,0.55808 -4.107985,0.65749 -5.774459,1.69429 -1.656204,1.03041 -1.803971,1.20244 -2.291792,2.66809 -0.608922,1.82949 -0.612205,2.20748 -0.175614,20.21979 0.160488,6.62119 0.308508,12.88194 0.328934,13.91277 0.02043,1.03083 -0.117665,2.65305 -0.30687,3.60494 -0.304636,1.53262 -0.292429,1.85962 0.10665,2.85701 0.593813,1.48409 0.915061,11.98672 0.428659,14.01427 -0.249087,1.03831 -0.243024,1.51654 0.0293,2.31164 0.425746,1.24301 0.42488,1.23903 0.465151,2.13606 0.02345,0.52229 0.269425,0.87633 0.84514,1.21641 0.446638,0.26384 0.839752,0.43833 0.873587,0.38777 0.03383,-0.0506 0.268522,-0.77247 0.521527,-1.60426 0.253004,-0.83179 0.562937,-1.57595 0.688739,-1.6537 0.125802,-0.0778 0.561034,0.42421 0.967183,1.11546 0.641035,1.09103 0.883829,1.97061 1.223299,4.4317 0.07962,0.5772 -0.265332,0.66086 -1.956535,0.47455 z m 9.636278,-68.51527 c -0.181901,-0.0734 -0.479557,-0.0734 -0.661458,0 -0.181901,0.0734 -0.03307,0.13345 0.330729,0.13345 0.363802,0 0.51263,-0.06 0.330729,-0.13345 z M 4.031698,272.52604 c -0.113758,-4.08618 -0.08413,-4.36562 0.462877,-4.36562 0.207402,0 0.485648,-0.26789 0.618326,-0.59531 0.275399,-0.67963 0.222901,-0.14064 -0.508968,5.22552 l -0.469112,3.43958 z m 25.204034,-0.39687 c -0.190439,-1.81901 -0.4,-3.90261 -0.465688,-4.63021 l -0.119435,-1.32292 0.351887,0.92605 c 0.193535,0.50932 0.494906,0.89627 0.669711,0.85989 0.356592,-0.0742 0.420336,4.17815 0.09419,6.28386 -0.161634,1.04357 -0.227174,0.78216 -0.530667,-2.11667 z m -1.296318,-8.22127 c -0.424942,-1.02629 -2.720222,-15.51572 -2.323124,-14.66519 0.06794,0.14552 0.726712,3.47369 1.463934,7.39594 1.27149,6.76471 1.519661,8.86439 0.85919,7.26925 z M 5.920789,263.6625 c -0.0137,-0.6588 1.118183,-6.10592 1.242867,-5.98124 0.173066,0.17307 -0.709023,5.47966 -0.990972,5.96163 -0.208329,0.35612 -0.244839,0.35896 -0.251895,0.0196 z m 1.335966,-6.76892 c 0.01269,-0.30823 0.07539,-0.37092 0.159852,-0.15985 0.07643,0.19099 0.06703,0.41919 -0.02089,0.50711 -0.08792,0.0879 -0.150452,-0.0683 -0.138964,-0.34726 z m 17.991666,-8.73125 c 0.01269,-0.30823 0.07539,-0.37092 0.159852,-0.15985 0.07643,0.19099 0.06703,0.41919 -0.02089,0.50711 -0.08792,0.0879 -0.150453,-0.0684 -0.138964,-0.34726 z"
       style="fill:#988664;stroke-width:0.26458332" />
    <path
       inkscape:connector-curvature="0"
       id="path2429"
       d="M 6.309825,287.49071 C 5.873263,287.38363 4.742169,286.82066 3.796284,286.23966 L 2.076492,285.18331 1.900796,282.69114 C 1.804166,281.32044 1.536083,272.04318 1.305062,262.075 1.074041,252.10682 0.771116,242.28417 0.631896,240.24688 c -0.13922,-2.03729 -0.326683,-6.04834 -0.416584,-8.91343 -0.134684,-4.29229 -0.09441,-5.36348 0.228802,-6.08541 0.215743,-0.48189 0.552223,-1.4008 0.747735,-2.04202 0.276657,-0.90735 0.800767,-1.56755 2.363731,-2.97749 l 2.008255,-1.81164 5.003203,-0.76679 c 2.751762,-0.42174 4.884141,-0.7907 4.73862,-0.8199 -0.145521,-0.0292 0.152135,-0.15564 0.661458,-0.28096 0.981168,-0.2414 3.506508,-0.0403 3.318288,0.26422 -0.06117,0.099 1.994925,0.45396 4.569101,0.78885 2.821338,0.36704 4.943045,0.7735 5.341778,1.02331 0.363802,0.22794 1.406263,1.12759 2.31658,1.99922 1.216705,1.165 1.72774,1.87117 1.92927,2.66591 0.150784,0.59462 0.393772,1.32175 0.539972,1.61585 0.263303,0.52965 0.188437,7.94289 -0.116176,11.50382 -0.08091,0.94588 -0.274618,5.1726 -0.430453,9.39271 -0.155834,4.2201 -0.394964,10.47088 -0.5314,13.89062 -0.136432,3.41974 -0.383151,9.90865 -0.548258,14.41979 -0.165108,4.51115 -0.378,8.84756 -0.473094,9.63647 l -0.1729,1.43438 -1.852083,1.13175 c -1.750177,1.06948 -4.356056,1.78579 -4.817578,1.32427 -0.236027,-0.23603 0.385724,-1.48833 0.738935,-1.48833 0.16408,0 0.761945,-0.36719 1.32859,-0.81598 0.566642,-0.44879 1.030261,-0.69065 1.030261,-0.53747 0,0.15318 0.20836,0.20462 0.463021,0.11431 0.795348,-0.28206 1.389063,-0.93614 1.389063,-1.53029 0,-0.31392 0.254304,-1.09711 0.56512,-1.74042 0.555035,-1.14879 0.556977,-1.20045 0.108794,-2.89397 -0.523173,-1.97688 -0.514577,-1.59926 -0.174757,-7.67742 0.174734,-3.12537 0.408009,-5.05706 0.717756,-5.94357 0.40507,-1.15932 0.419804,-1.5317 0.125625,-3.175 -0.368488,-2.05838 -0.369594,-2.80355 -0.01749,-11.78352 0.823695,-21.00741 0.859456,-23.83645 0.324331,-25.65813 -0.493093,-1.67859 -0.540417,-1.73594 -2.333111,-2.82765 -1.751317,-1.06651 -2.025129,-1.1434 -6.382955,-1.79239 -4.495581,-0.6695 -5.989923,-0.80822 -4.442689,-0.41241 0.655586,0.16771 0.563477,0.19756 -0.529167,0.17149 -0.727604,-0.0174 -1.97776,0.0492 -2.778125,0.14797 -0.917246,0.11316 -1.161774,0.0987 -0.661458,-0.0392 1.393364,-0.38397 0.367583,-0.30286 -3.649093,0.28854 -3.673791,0.54091 -4.022188,0.64374 -5.684026,1.67766 -1.666336,1.03671 -1.799771,1.19347 -2.271099,2.66809 -0.638062,1.99627 -0.646837,2.86798 -0.20578,20.44268 0.337117,13.43303 0.330679,14.53831 -0.09794,16.8154 -0.456357,2.42444 -0.455748,2.44323 0.115542,3.56306 0.515892,1.01123 0.5886,1.6704 0.71468,6.47935 0.11488,4.38174 0.06372,5.64934 -0.281809,6.98279 -0.402651,1.55388 -0.397531,1.69403 0.110733,3.03129 0.293096,0.77115 0.532963,1.64431 0.533036,1.94035 1.47e-4,0.59424 1.413693,1.58484 1.864194,1.30642 0.151511,-0.0936 0.679104,0.13761 1.172428,0.51388 0.493325,0.37628 1.019772,0.68414 1.169882,0.68414 0.292449,0 0.820713,0.84032 0.820713,1.30553 0,0.31428 -1.297587,0.33137 -2.513543,0.0331 z m 10.252604,-68.18885 c -0.181901,-0.0734 -0.479557,-0.0734 -0.661458,0 -0.181901,0.0734 -0.03307,0.13345 0.330729,0.13345 0.363802,0 0.51263,-0.06 0.330729,-0.13345 z m 13.255468,52.03356 c 0,-1.23693 0.04558,-1.74294 0.101283,-1.12448 0.0557,0.61846 0.0557,1.63049 0,2.24896 -0.05571,0.61846 -0.101283,0.11245 -0.101283,-1.12448 z m 0.527421,-18.12396 c 0.0011,-1.16417 0.04748,-1.6075 0.10337,-0.98519 0.05589,0.62231 0.0551,1.57481 -0.0019,2.11666 -0.05685,0.54186 -0.102582,0.0327 -0.101622,-1.13147 z M 3.638192,244.08334 c 0,-2.25558 0.04058,-3.17831 0.09017,-2.05053 0.0496,1.12779 0.0496,2.97326 0,4.10105 -0.0496,1.12778 -0.09017,0.20505 -0.09017,-2.05052 z m 26.971709,-1.19063 c 0.0011,-1.16417 0.04748,-1.6075 0.10337,-0.98519 0.05589,0.62231 0.05511,1.57481 -0.0019,2.11666 -0.05685,0.54186 -0.102582,0.0327 -0.101621,-1.13147 z m 0.26633,-7.80521 c 0,-1.23692 0.04558,-1.74294 0.101282,-1.12448 0.0557,0.61847 0.0557,1.6305 0,2.24896 -0.05571,0.61847 -0.101282,0.11245 -0.101282,-1.12448 z M 3.552588,225.14358 c 0.01269,-0.30823 0.07539,-0.37092 0.159853,-0.15985 0.07643,0.19099 0.06703,0.4192 -0.02089,0.50711 -0.08792,0.0879 -0.150453,-0.0683 -0.138965,-0.34726 z m 27.252083,0 c 0.0127,-0.30823 0.07539,-0.37092 0.159851,-0.15985 0.07643,0.19099 0.06703,0.4192 -0.02088,0.50711 -0.08792,0.0879 -0.150452,-0.0683 -0.138964,-0.34726 z m -23.63936,-3.84724 c 0.179476,-0.18082 0.39297,-0.26212 0.474432,-0.18066 0.08146,0.0815 -0.06538,0.22941 -0.326319,0.32877 -0.377084,0.14359 -0.407475,0.11319 -0.148113,-0.14811 z m 19.914305,0.0328 c -0.238466,-0.15411 -0.2711,-0.2581 -0.08176,-0.26053 0.173313,-0.002 0.3887,0.11501 0.478637,0.26053 0.203015,0.32849 0.111421,0.32849 -0.396875,0 z M 8.244591,220.88385 c 0.190996,-0.0764 0.419199,-0.067 0.507118,0.0209 0.08792,0.0879 -0.06835,0.15045 -0.347266,0.13896 -0.308224,-0.0127 -0.370919,-0.0754 -0.159852,-0.15985 z m 17.727082,0 c 0.190996,-0.0764 0.419199,-0.067 0.507118,0.0209 0.08792,0.0879 -0.06835,0.15045 -0.347265,0.13896 -0.308225,-0.0127 -0.37092,-0.0754 -0.159853,-0.15985 z m -16.283375,-0.2672 c 0.257431,-0.0671 0.614618,-0.0627 0.79375,0.01 0.179131,0.0725 -0.03149,0.12736 -0.468056,0.12197 -0.436563,-0.005 -0.583125,-0.0647 -0.325694,-0.13177 z m 14.414756,0.008 c 0.181901,-0.0734 0.479557,-0.0734 0.661458,0 0.181901,0.0734 0.03307,0.13345 -0.330729,0.13345 -0.363802,0 -0.51263,-0.06 -0.330729,-0.13345 z m -12.964583,-0.26456 c 0.181901,-0.0734 0.479557,-0.0734 0.661458,0 0.181901,0.0734 0.03307,0.13345 -0.330729,0.13345 -0.363802,0 -0.51263,-0.06 -0.330729,-0.13345 z m 11.641666,0 c 0.181901,-0.0734 0.479557,-0.0734 0.661458,0 0.181901,0.0734 0.03307,0.13345 -0.330729,0.13345 -0.363802,0 -0.51263,-0.06 -0.330729,-0.13345 z m -10.054166,-0.26458 c 0.181901,-0.0734 0.479557,-0.0734 0.661458,0 0.181901,0.0734 0.03307,0.13345 -0.330729,0.13345 -0.363802,0 -0.51263,-0.0601 -0.330729,-0.13345 z m 8.466666,0 c 0.181901,-0.0734 0.479557,-0.0734 0.661458,0 0.181901,0.0734 0.03307,0.13345 -0.330729,0.13345 -0.363802,0 -0.51263,-0.0601 -0.330729,-0.13345 z m -1.450173,-0.27271 c 0.257431,-0.0671 0.614619,-0.0627 0.79375,0.01 0.179132,0.0725 -0.03149,0.12736 -0.468056,0.12197 -0.436563,-0.005 -0.583125,-0.0647 -0.325694,-0.13177 z"
       style="fill:#af8f2b;stroke-width:0.26458332" />
    <path
       inkscape:connector-curvature="0"
       id="path2427"
       d="M 6.309825,287.49071 C 5.873263,287.38363 4.742169,286.82066 3.796284,286.23966 L 2.076492,285.18331 1.900796,282.69114 C 1.804166,281.32044 1.536083,272.04318 1.305062,262.075 1.074041,252.10682 0.771116,242.28417 0.631896,240.24688 c -0.13922,-2.03729 -0.326683,-6.04834 -0.416584,-8.91343 -0.134684,-4.29229 -0.09441,-5.36348 0.228802,-6.08541 0.215743,-0.48189 0.552223,-1.4008 0.747735,-2.04202 0.276657,-0.90735 0.800767,-1.56755 2.363731,-2.97749 l 2.008255,-1.81164 5.003203,-0.76679 c 2.751762,-0.42174 4.884141,-0.7907 4.73862,-0.8199 -0.145521,-0.0292 0.152135,-0.15564 0.661458,-0.28096 0.981168,-0.2414 3.506508,-0.0403 3.318288,0.26422 -0.06117,0.099 1.994925,0.45396 4.569101,0.78885 2.821338,0.36704 4.943045,0.7735 5.341778,1.02331 0.363802,0.22794 1.406263,1.12759 2.31658,1.99922 1.216705,1.165 1.72774,1.87117 1.92927,2.66591 0.150784,0.59462 0.393772,1.32175 0.539972,1.61585 0.263303,0.52965 0.188437,7.94289 -0.116176,11.50382 -0.08091,0.94588 -0.274618,5.1726 -0.430453,9.39271 -0.155834,4.2201 -0.394964,10.47088 -0.5314,13.89062 -0.136432,3.41974 -0.383151,9.90865 -0.548258,14.41979 -0.165108,4.51115 -0.378,8.84756 -0.473094,9.63647 l -0.1729,1.43438 -1.852083,1.13175 c -1.750177,1.06948 -4.356056,1.78579 -4.817578,1.32427 -0.08974,-0.0898 -0.02732,-0.46133 0.138718,-0.82575 0.215733,-0.47348 0.511161,-0.66347 1.035167,-0.66573 0.403301,-0.002 1.447651,-0.40033 2.320776,-0.88576 1.540325,-0.85638 1.592469,-0.92115 1.754685,-2.17966 0.09195,-0.71338 0.316217,-1.61744 0.498367,-2.00902 0.250814,-0.53919 0.261829,-0.98865 0.04539,-1.85208 -0.36444,-1.45388 0.03522,-12.91378 0.505058,-14.48195 0.251931,-0.84086 0.258844,-1.47454 0.02989,-2.73957 -0.163817,-0.90512 -0.242602,-2.12193 -0.17508,-2.70401 0.06752,-0.58209 0.241985,-4.51115 0.387699,-8.73125 0.145711,-4.22011 0.398034,-11.34447 0.560713,-15.83192 0.272933,-7.52866 0.259662,-8.29519 -0.171773,-9.92187 -0.257157,-0.96958 -0.589727,-1.9183 -0.739047,-2.10827 -0.149321,-0.18996 -1.055153,-0.81095 -2.012961,-1.37997 -1.630794,-0.96884 -2.063795,-1.08574 -6.81314,-1.83944 l -5.07167,-0.80485 -5.114693,0.80876 c -4.788959,0.75725 -5.225596,0.8744 -6.856069,1.83944 -0.957757,0.56687 -1.881038,1.19896 -2.051736,1.40464 -0.170699,0.20568 -0.541636,1.27824 -0.824305,2.38346 -0.486893,1.90373 -0.50036,2.48713 -0.255874,11.08393 0.639083,22.47182 0.655621,24.01479 0.277931,25.9306 -0.318985,1.61804 -0.312514,1.95198 0.05443,2.80884 0.5506,1.28573 0.920125,12.56767 0.466479,14.24201 -0.219841,0.8114 -0.220237,1.29569 -0.0015,1.85208 0.162892,0.41436 0.372717,1.3487 0.466276,2.07631 0.166452,1.29448 0.204234,1.34124 1.757608,2.17537 0.873125,0.46885 1.910733,0.8558 2.305795,0.85989 0.676512,0.007 1.266075,0.61841 1.266075,1.31297 0,0.31428 -1.297587,0.33137 -2.513542,0.0331 z"
       style="fill:#877553;stroke-width:0.26458332" />
    <path
       inkscape:connector-curvature="0"
       id="path2425"
       d="M 7.045297,287.4216 C 6.103342,287.28209 5.086349,286.8467 3.847348,286.05252 L 2.030593,284.88801 1.851898,276.85494 C 1.753618,272.43676 1.498791,262.09485 1.285622,253.87292 1.072452,245.65099 0.873468,237.8524 0.843435,236.54271 l -0.05461,-2.38125 -0.149919,2.11667 c -0.115291,1.62778 -0.195184,0.74167 -0.345901,-3.83646 -0.186893,-5.677 -0.113971,-7.28478 0.318291,-7.01763 0.106942,0.0661 0.350555,-0.56032 0.541363,-1.39204 0.301434,-1.31392 0.558215,-1.71407 1.958293,-3.05166 0.886253,-0.84671 1.909025,-1.69391 2.272827,-1.88268 0.363803,-0.18877 3.173499,-0.72798 6.243771,-1.19825 l 5.582313,-0.85505 5.876848,0.80067 c 5.837459,0.79531 5.88428,0.80684 6.985397,1.72012 2.671675,2.21593 3.015683,2.6468 3.367164,4.21739 0.18652,0.83346 0.439245,1.51538 0.561609,1.51538 0.122365,0 0.222481,1.48828 0.222481,3.30729 0,1.81901 -0.100158,3.30729 -0.22257,3.30729 -0.122415,0 -0.300834,2.41102 -0.396487,5.35782 -0.09565,2.94679 -0.291972,8.27484 -0.436271,11.8401 -0.459507,11.35335 -0.778692,19.48854 -1.089816,27.77645 -0.259281,6.90688 -0.364461,8.11022 -0.732451,8.37994 -1.207508,0.88505 -4.003942,2.16091 -5.009132,2.28539 -1.046417,0.12958 -1.13317,0.0952 -1.058334,-0.41965 0.05814,-0.39998 0.440953,-0.68908 1.334808,-1.00804 0.689309,-0.24598 1.790637,-0.76214 2.447396,-1.14702 0.969719,-0.5683 1.194107,-0.84054 1.194107,-1.44876 0,-0.41193 0.242527,-1.29724 0.538951,-1.96735 0.50107,-1.13275 0.512564,-1.31942 0.163539,-2.65599 -0.540507,-2.06982 -0.173755,-12.20247 0.502547,-13.88449 0.41176,-1.02408 0.425929,-1.33929 0.12488,-2.77813 -0.374573,-1.79023 -0.374666,-2.03038 -0.0047,-12.07402 0.91627,-24.87204 0.894476,-23.45449 0.389829,-25.35722 -0.257109,-0.96941 -0.589643,-1.91799 -0.738963,-2.10796 -0.14932,-0.18996 -1.055153,-0.81095 -2.01296,-1.37997 -1.630794,-0.96884 -2.063795,-1.08574 -6.81314,-1.83944 l -5.071681,-0.80485 -5.114693,0.80876 c -4.788959,0.75725 -5.225596,0.8744 -6.856069,1.83944 -0.957757,0.56687 -1.881038,1.19896 -2.051736,1.40464 -0.170699,0.20568 -0.54122,1.27661 -0.82338,2.37984 -0.48628,1.90134 -0.499428,2.48595 -0.252264,11.21622 0.679668,24.00713 0.677309,23.60628 0.150486,25.57007 -0.477609,1.78034 -0.476825,1.82831 0.05192,3.175 0.746798,1.90205 1.105444,11.75066 0.50264,13.80276 -0.399915,1.36142 -0.385392,1.55835 0.21463,2.91042 0.193737,0.43656 0.387629,1.21047 0.430871,1.71979 0.06858,0.8078 0.247549,1.01866 1.401538,1.65138 0.727605,0.39894 1.775533,0.85166 2.32873,1.00606 0.943332,0.26327 1.411247,0.74829 1.201958,1.24587 -0.05011,0.11913 -0.712642,0.12455 -1.472299,0.012 z"
       style="fill:#8c7231;stroke-width:0.26458332" />
    <path
       inkscape:connector-curvature="0"
       id="path2423"
       d="M 7.045297,287.42948 C 6.115449,287.28646 5.070424,286.8365 3.847348,286.05252 L 2.030593,284.88801 1.851898,276.85494 C 1.753618,272.43676 1.498791,262.09485 1.285622,253.87292 1.072452,245.65099 0.873468,237.8524 0.843435,236.54271 l -0.05461,-2.38125 -0.149919,2.11667 c -0.115291,1.62778 -0.195184,0.74167 -0.345901,-3.83646 -0.186893,-5.677 -0.113971,-7.28478 0.318291,-7.01763 0.106942,0.0661 0.350555,-0.56032 0.541363,-1.39204 0.301434,-1.31392 0.558215,-1.71407 1.958293,-3.05166 0.886253,-0.84671 1.909025,-1.69391 2.272827,-1.88268 0.363803,-0.18877 3.173499,-0.72798 6.243771,-1.19825 l 5.582313,-0.85505 5.876848,0.80067 c 5.837459,0.79531 5.88428,0.80684 6.985397,1.72012 2.671675,2.21593 3.015683,2.6468 3.367164,4.21739 0.18652,0.83346 0.439245,1.51538 0.561609,1.51538 0.122365,0 0.222481,1.48828 0.222481,3.30729 0,1.81901 -0.100158,3.30729 -0.22257,3.30729 -0.122415,0 -0.300834,2.41102 -0.396487,5.35782 -0.09565,2.94679 -0.291972,8.27484 -0.436271,11.8401 -0.459507,11.35335 -0.778692,19.48854 -1.089816,27.77645 -0.259281,6.90688 -0.364461,8.11022 -0.732451,8.37994 -2.23968,1.64159 -6.251346,2.96247 -6.065433,1.9971 0.04547,-0.23613 0.444453,-0.50332 0.886619,-0.59375 0.624771,-0.12778 3.841943,-1.80305 4.309134,-2.24389 0.150471,-0.14198 0.623776,-3.65668 0.587086,-4.3596 -0.124259,-2.38056 0.07317,-11.38688 0.290251,-13.24057 0.144116,-1.23066 0.260688,-2.77334 0.259051,-3.42818 -0.0016,-0.65484 -0.01008,-2.38125 -0.01876,-3.83646 -0.0087,-1.45521 0.09873,-5.62239 0.238675,-9.26042 0.964605,-25.0762 0.95617,-23.65549 0.156652,-26.38196 -0.426371,-1.45398 -0.516565,-1.55572 -2.38479,-2.68994 -1.892268,-1.14883 -2.07345,-1.19999 -7.122975,-2.01151 l -5.181318,-0.8327 -5.259414,0.84042 -5.259414,0.84042 -1.970132,1.25683 -1.970132,1.25682 -0.575988,2.10173 c -0.566865,2.06845 -0.571976,2.25656 -0.322668,11.87644 0.609585,23.52161 0.621508,24.56698 0.295692,25.92513 -0.263985,1.10041 -0.250493,1.4832 0.08017,2.27459 0.314257,0.75212 0.408887,2.41436 0.451568,7.93201 0.0297,3.83926 0.03211,7.15907 0.0054,7.37735 -0.02675,0.21828 0.04914,1.27397 0.168655,2.34599 0.162073,1.45379 0.348447,2.04756 0.733388,2.3365 0.940943,0.70628 3.535039,1.93209 4.088738,1.93209 0.467957,0 1.047842,0.67844 0.759532,0.88862 -0.05436,0.0396 -0.72037,-0.0235 -1.480027,-0.14039 z"
       style="fill:#745f35;stroke-width:0.26458332" />
  </g>
</svg>
